<?xml version="1.0" standalone="no"?>
<!DOCTYPE svg PUBLIC "-//W3C//DTD SVG 20010904//EN"
 "http://www.w3.org/TR/2001/REC-SVG-20010904/DTD/svg10.dtd">
<svg version="1.0" xmlns="http://www.w3.org/2000/svg"
 width="967.000000pt" height="975.000000pt" viewBox="0 0 967.000000 975.000000"
 preserveAspectRatio="xMidYMid meet">

<g transform="translate(0.000000,975.000000) scale(0.100000,-0.100000)"
fill="#000000" stroke="none">
<path d="M4630 9581 c-82 -6 -67 -7 101 -9 423 -4 786 -51 1175 -152 1478
-383 2677 -1475 3198 -2913 125 -345 210 -709 252 -1079 22 -195 30 -649 15
-846 -61 -810 -326 -1580 -774 -2252 -186 -279 -479 -627 -517 -615 -11 3 -17
0 -17 -10 0 -8 5 -15 11 -15 6 0 -3 -14 -21 -30 -31 -29 -73 -41 -73 -20 0 5
-7 7 -15 4 -8 -4 -15 -12 -15 -19 0 -13 -11 -13 -63 -6 -12 1 13 23 46 40 27
14 39 37 15 28 -7 -2 -24 4 -37 14 -28 22 -45 25 -38 5 4 -10 -4 -12 -39 -8
-30 3 -44 1 -44 -7 0 -7 -3 -10 -7 -8 -12 7 -55 -12 -49 -21 2 -4 -5 -9 -17
-9 -11 -1 -33 -11 -48 -23 -16 -11 -33 -20 -39 -20 -6 0 -9 -4 -6 -9 3 -5 -9
-11 -27 -15 -24 -5 -29 -9 -17 -16 9 -5 19 -5 27 2 10 8 13 6 13 -5 0 -21 39
-33 54 -17 8 10 6 12 -11 7 -13 -3 -25 -1 -28 3 -3 4 16 10 41 12 25 2 48 0
50 -4 3 -5 -2 -8 -10 -8 -9 0 -16 -4 -16 -10 0 -15 26 -12 40 6 10 11 23 14
52 9 25 -4 38 -3 38 4 0 6 -21 11 -47 12 -47 1 -47 1 -14 9 38 9 86 -4 76 -20
-3 -5 -1 -10 5 -10 7 0 9 8 5 20 -4 11 -2 20 4 20 6 0 11 -9 11 -21 0 -11 5
-17 10 -14 6 4 8 11 5 16 -4 5 0 10 7 10 7 1 27 3 45 5 18 2 35 0 38 -5 3 -6
-9 -9 -26 -8 -20 1 -34 -3 -37 -12 -3 -10 0 -12 12 -8 26 10 19 -1 -35 -58
-30 -31 -62 -55 -80 -59 -16 -3 -29 -11 -29 -17 0 -8 5 -8 18 1 9 7 -10 -13
-43 -44 -61 -58 -117 -91 -147 -87 -9 1 -19 -3 -23 -9 -4 -7 -11 -8 -18 -1
-14 11 -67 3 -67 -11 0 -5 4 -7 9 -4 9 6 71 -15 71 -25 0 -3 -9 -14 -20 -24
-11 -10 -20 -16 -20 -13 0 4 -14 -7 -32 -23 -17 -17 -37 -28 -45 -25 -8 3 -11
2 -8 -3 3 -6 -20 -28 -51 -50 -57 -41 -82 -51 -68 -29 5 8 0 9 -14 6 -12 -4
-25 -2 -28 4 -3 5 -13 7 -21 4 -8 -3 -11 -1 -8 4 3 6 -1 10 -9 10 -9 0 -16 -6
-16 -13 0 -8 -18 -20 -40 -27 -22 -7 -40 -19 -40 -26 0 -7 -5 -16 -12 -20 -7
-4 -8 -3 -4 4 4 8 2 10 -8 6 -9 -3 -12 -12 -9 -22 4 -9 3 -14 -2 -10 -4 4 -14
3 -21 -3 -11 -9 -16 -5 -24 16 -5 14 -10 30 -10 34 0 5 -6 14 -14 20 -12 10
-14 6 -10 -29 5 -39 4 -41 -16 -30 -11 6 -18 15 -15 20 8 13 -9 20 -25 10 -20
-12 -40 -1 -40 23 0 20 0 20 -19 1 -13 -13 -15 -23 -9 -31 6 -7 8 -23 5 -35
-3 -11 -2 -30 4 -40 6 -12 6 -18 0 -18 -13 0 -32 35 -24 44 3 3 1 6 -6 6 -7 0
-11 -6 -8 -14 3 -8 -1 -17 -10 -20 -13 -5 -14 -1 -10 24 5 23 3 30 -9 30 -9 0
-12 -5 -8 -12 4 -7 3 -8 -4 -4 -18 11 -14 26 5 26 9 0 14 3 10 6 -10 10 -47
-7 -47 -21 0 -8 -5 -17 -12 -21 -8 -5 -9 0 -5 17 5 22 5 22 -7 7 -19 -25 -29
-22 -15 5 11 21 10 21 -13 -3 -22 -22 -23 -26 -9 -37 13 -10 13 -12 2 -13 -8
0 -12 -3 -8 -6 3 -3 12 -2 19 2 20 13 48 15 48 4 0 -6 -9 -10 -21 -10 -11 0
-18 -4 -15 -9 4 -5 -4 -7 -16 -4 -20 4 -19 2 5 -12 21 -12 32 -13 48 -5 19 11
20 10 9 -11 -11 -20 -10 -21 9 -16 12 3 19 0 18 -7 -2 -13 45 -20 78 -12 26 7
41 46 22 59 -9 6 -8 7 3 5 8 -1 25 2 38 6 26 9 96 -19 87 -35 -10 -16 -66 -41
-80 -35 -8 3 -12 0 -9 -7 4 -11 -201 -124 -236 -130 -8 -1 -17 -5 -20 -8 -21
-27 -374 -171 -580 -237 -340 -110 -715 -184 -1074 -212 -166 -13 -546 -13
-712 0 -864 68 -1709 381 -2399 889 l-70 51 67 0 c36 0 74 3 84 7 12 4 15 3
10 -5 -5 -9 14 -12 71 -11 43 1 66 4 51 6 -20 3 -25 9 -21 21 4 13 2 12 -10
-3 -13 -16 -18 -17 -26 -6 -6 9 -11 10 -15 2 -4 -6 -13 -11 -19 -11 -7 0 -4 5
5 10 10 6 15 19 13 31 -3 17 -2 19 10 9 8 -7 12 -16 9 -21 -3 -5 0 -9 5 -9 6
0 11 5 11 10 0 6 9 10 20 10 13 0 18 -5 14 -15 -5 -11 -2 -13 10 -9 9 3 13 11
9 17 -3 6 -1 7 6 3 6 -4 9 -12 5 -17 -9 -15 48 -2 59 13 7 10 8 9 4 -3 -9 -27
9 -42 52 -45 37 -2 40 -1 31 16 -7 13 -6 19 6 24 8 3 12 2 9 -3 -3 -5 0 -13 6
-17 8 -5 9 -3 4 6 -6 10 -4 12 8 7 17 -6 44 19 33 30 -4 4 -11 1 -16 -7 -6 -9
-12 -11 -17 -5 -5 6 -7 9 -5 8 2 0 15 5 30 13 16 8 30 10 35 5 5 -5 15 -7 22
-5 7 3 16 1 20 -5 3 -6 14 -11 23 -11 15 0 15 2 2 10 -15 10 -14 10 83 14 15
1 27 -1 27 -4 0 -9 79 -1 99 10 20 10 61 2 61 -12 0 -6 8 -4 17 3 15 12 16 12
10 -3 -3 -10 -2 -18 3 -18 6 0 10 4 10 9 0 5 7 12 16 15 13 5 14 3 6 -7 -8
-10 -6 -13 9 -14 11 -1 17 2 14 8 -9 13 19 11 33 -3 8 -8 15 -8 25 0 9 8 86
12 238 12 123 1 240 3 259 6 38 5 186 11 377 15 82 2 120 6 113 13 -6 6 -10
19 -10 30 0 15 3 17 9 8 6 -11 11 -10 25 3 19 19 21 29 4 19 -17 -10 -80 -5
-93 7 -7 7 -3 8 10 4 16 -6 17 -5 5 4 -8 6 -26 11 -40 11 -14 0 -31 4 -38 9
-43 27 122 22 243 -7 81 -20 179 -36 390 -62 39 -5 135 -9 215 -9 l145 1 -62
15 c-35 9 -63 20 -63 25 0 5 10 7 23 3 20 -5 20 -5 -3 9 l-25 15 30 0 c17 0
47 -6 68 -13 38 -14 47 -10 25 12 -9 9 -9 12 2 12 8 0 -6 11 -33 24 -50 25
-142 30 -155 9 -4 -6 -20 -10 -37 -9 -16 1 -35 -2 -42 -7 -20 -14 -35 1 -23
24 9 15 7 19 -5 19 -10 0 -13 -5 -9 -12 4 -7 3 -8 -4 -4 -13 8 -5 36 10 36 5
0 6 5 3 10 -10 16 -21 12 -33 -12 -11 -23 -11 -23 -11 4 -1 17 5 28 17 31 10
3 6 5 -11 6 -16 0 -37 5 -47 11 -15 8 -20 6 -25 -10 -3 -11 -11 -20 -16 -20
-5 0 -3 -10 5 -22 10 -16 12 -35 7 -63 l-7 -40 -39 52 c-21 29 -52 58 -69 65
-71 29 -76 63 -18 118 24 22 48 40 52 40 5 0 12 5 16 11 4 8 -1 9 -17 5 -21
-6 -22 -6 -6 5 14 8 22 8 30 0 15 -15 30 -14 21 2 -6 9 -4 10 7 0 23 -22 50
-14 89 25 76 79 201 113 281 76 57 -25 132 -134 170 -244 25 -73 34 -152 21
-177 -11 -19 -8 -20 136 -19 81 0 167 -3 192 -7 30 -6 40 -5 31 1 -8 6 -11 17
-8 25 4 11 1 14 -9 10 -16 -6 -18 10 -4 37 7 13 7 21 0 25 -6 4 -9 1 -8 -5 2
-7 -5 -14 -14 -15 -13 -2 -18 3 -18 21 0 15 5 22 13 18 7 -2 17 8 24 25 8 22
8 30 0 28 -6 -1 -13 6 -15 17 -2 11 0 16 6 12 7 -4 8 4 3 21 -6 22 -14 29 -39
31 -23 2 -32 8 -32 21 0 10 -7 24 -15 31 -12 10 -18 9 -32 -5 -16 -17 -17 -16
-24 1 -8 23 -1 33 10 15 5 -8 11 -9 15 -3 7 12 56 13 56 0 0 -5 5 -6 10 -3 8
5 7 11 -1 21 -6 7 -15 12 -19 9 -12 -8 -41 6 -34 16 3 5 10 9 15 9 6 0 7 -5 3
-12 -5 -7 -3 -8 5 -4 9 6 8 13 -6 26 -12 11 -22 14 -30 8 -7 -6 -14 -5 -19 3
-4 7 -3 9 3 6 6 -4 17 0 24 9 10 13 10 17 -1 24 -20 12 -5 24 17 15 10 -4 25
-9 35 -10 15 -1 15 0 0 23 -16 24 -16 25 6 13 12 -6 22 -16 22 -21 0 -6 8 -10
18 -10 14 0 15 2 2 10 -11 7 -11 10 -2 10 7 0 10 5 7 10 -6 10 17 40 31 40 5
0 3 -5 -4 -12 -7 -7 -12 -19 -12 -27 1 -13 3 -13 11 2 6 9 14 15 19 12 4 -3 7
6 6 19 0 13 -4 22 -7 20 -4 -2 -9 3 -12 11 -8 18 24 8 36 -12 7 -12 12 -11 25
5 9 10 24 17 32 15 12 -3 11 -1 -2 9 -15 13 -15 15 4 27 16 10 18 10 12 0 -5
-9 -2 -10 10 -6 10 4 29 7 42 7 16 0 24 6 24 18 1 15 2 14 12 -3 16 -30 18
-31 28 -15 7 10 10 11 10 3 0 -7 5 -13 11 -13 7 0 9 9 6 21 -4 15 1 23 21 30
14 5 33 8 41 6 11 -3 9 -5 -5 -6 -21 -1 -43 -31 -24 -31 6 0 10 5 10 11 0 6 6
9 14 6 8 -3 24 3 37 14 12 10 31 19 41 19 12 0 17 4 12 12 -5 8 -2 9 9 5 10
-3 18 -2 18 3 1 6 2 14 3 19 0 5 5 13 9 18 5 4 7 2 5 -6 -2 -7 3 -16 11 -19 9
-3 11 0 7 7 -4 7 3 20 16 31 20 18 21 19 3 14 -16 -5 -15 -1 8 20 15 14 27 28
27 31 0 4 9 20 21 36 l20 29 -27 -10 c-15 -6 -29 -8 -32 -5 -3 3 -1 5 4 5 14
0 90 72 103 98 9 17 9 22 -2 22 -7 0 -18 -5 -25 -12 -8 -8 -12 -8 -12 -1 0 6
15 16 33 24 43 17 87 50 81 60 -3 5 3 6 12 2 13 -5 15 -3 9 7 -5 8 -4 11 3 6
14 -9 84 33 75 47 -3 6 -1 7 6 3 15 -10 43 13 34 27 -3 6 -1 7 5 3 16 -9 120
89 118 112 0 9 5 17 12 18 6 1 14 2 17 3 3 0 1 10 -4 20 -9 16 -8 18 8 14 11
-3 23 4 33 19 15 22 15 24 -5 25 -25 2 -40 17 -42 43 -1 15 1 17 12 9 9 -9 13
-8 13 0 0 7 6 9 13 6 6 -4 4 0 -5 8 -24 19 -23 30 3 22 21 -7 21 -6 -2 24 -12
17 -26 27 -29 21 -3 -6 -14 7 -24 27 -14 29 -20 34 -27 22 -6 -10 -9 -10 -9
-1 0 6 -6 12 -14 12 -8 0 -16 7 -20 15 -3 8 -12 15 -21 15 -8 0 -15 6 -15 14
0 8 -5 18 -12 22 -8 5 -9 1 -5 -12 7 -18 6 -18 -6 -2 -8 10 -17 15 -20 12 -3
-3 -3 3 0 14 2 11 -1 23 -8 27 -8 6 -10 4 -4 -5 6 -9 4 -11 -4 -6 -7 5 -10 15
-7 23 3 8 2 12 -3 8 -5 -3 -19 8 -31 24 -13 19 -26 28 -35 24 -8 -3 -15 0 -15
6 0 6 -7 11 -16 11 -13 0 -14 3 -5 14 6 7 9 21 5 30 -6 15 11 22 39 17 5 -1 6
7 2 18 -6 21 11 62 42 98 46 54 54 65 74 105 23 45 38 59 79 69 18 5 14 6 -12
4 -27 -2 -35 1 -32 10 3 7 15 16 27 19 13 3 18 9 12 13 -14 11 -17 33 -4 33 6
0 9 7 5 15 -3 8 -1 15 4 15 6 0 10 7 10 15 0 8 7 15 15 15 8 0 15 5 15 10 0 6
-5 10 -11 10 -6 0 -1 9 12 21 13 11 18 18 12 14 -7 -3 -13 -1 -13 4 0 6 12 11
28 11 24 1 25 2 9 11 -18 10 -18 11 0 25 17 13 17 13 0 14 -10 0 -15 5 -12 10
4 6 11 7 17 4 8 -5 9 -1 5 10 -6 16 -3 18 30 12 37 -5 37 -5 10 7 -31 15 -26
27 10 27 13 0 22 4 18 9 -3 5 9 11 27 13 31 4 29 6 -47 41 -44 21 -91 44 -105
52 -14 7 -49 23 -77 34 -28 11 -70 29 -94 40 -24 10 -64 28 -89 40 -52 23
-135 70 -188 106 -20 14 -40 25 -45 25 -4 0 -34 18 -65 39 -210 144 -326 397
-325 711 1 315 6 380 32 380 5 0 9 -12 9 -26 0 -18 -3 -22 -9 -13 -4 7 -12 10
-16 5 -4 -4 1 -14 11 -22 11 -8 14 -14 8 -14 -8 0 -10 -9 -6 -26 5 -21 4 -25
-6 -19 -10 6 -12 4 -7 -9 4 -10 7 -22 7 -28 0 -7 5 -6 14 2 12 9 15 8 13 -9 0
-11 -5 -17 -9 -15 -13 9 -9 -14 6 -28 11 -12 11 -17 -1 -34 -15 -18 -15 -18
-10 3 3 13 -1 27 -10 34 -12 11 -13 8 -7 -17 5 -16 8 -39 7 -52 -1 -17 2 -20
12 -12 9 8 11 4 7 -16 -3 -19 -1 -25 7 -20 6 4 9 11 7 15 -3 4 -1 13 5 21 7
12 9 9 10 -10 3 -42 -2 -75 -13 -85 -7 -7 -9 -1 -4 20 6 28 5 29 -9 11 -10
-13 -15 -15 -15 -6 0 7 -3 10 -6 7 -4 -4 -1 -13 6 -22 7 -8 9 -23 6 -32 -6
-15 -5 -16 5 -5 16 15 33 16 23 0 -5 -7 -3 -8 6 -3 10 6 12 1 6 -26 -3 -19
-11 -36 -16 -37 -6 -2 -7 -8 -4 -14 4 -6 13 -1 21 13 l14 24 -5 -25 c-3 -14
-6 -31 -6 -38 0 -7 -4 -10 -10 -7 -5 3 -10 0 -10 -8 0 -8 7 -17 15 -21 11 -4
13 -11 6 -30 -7 -17 -6 -29 4 -42 9 -13 10 -26 4 -43 -5 -13 -7 -26 -4 -29 3
-3 5 0 5 7 0 7 4 10 9 7 9 -6 9 112 0 129 -3 6 -6 23 -7 39 -1 21 2 27 12 23
9 -4 17 1 20 11 2 9 2 -5 0 -33 -4 -37 -3 -46 5 -35 9 13 11 13 11 -2 0 -10
-8 -18 -17 -19 -10 0 -13 -3 -6 -5 7 -3 9 -12 6 -21 -4 -11 -2 -14 5 -9 7 4
12 13 12 19 0 7 7 20 14 30 12 16 15 15 29 -15 16 -31 17 -32 17 -8 0 20 2 22
10 10 5 -8 10 -10 10 -5 -1 6 -7 19 -15 29 -8 11 -15 16 -15 11 0 -5 -7 0 -15
13 -14 19 -14 25 -1 49 17 32 22 23 5 -10 -9 -18 -9 -20 1 -10 10 9 17 7 32
-13 19 -24 58 -33 58 -14 0 5 -3 9 -7 9 -19 -3 -33 2 -33 11 0 6 11 8 24 6 22
-4 24 -1 20 27 -2 18 -1 25 3 17 3 -8 10 -18 16 -21 5 -4 5 -15 -2 -28 -10
-17 -9 -21 4 -21 12 0 15 -6 10 -22 -5 -18 -4 -20 4 -8 11 16 12 13 15 -35 0
-14 -3 -24 -9 -22 -5 1 -10 7 -10 14 0 7 -6 18 -14 25 -11 11 -12 9 -5 -12 5
-14 8 -37 9 -52 0 -14 3 -24 8 -21 9 5 9 -19 1 -41 -3 -9 -11 -13 -17 -9 -6 3
-3 -4 6 -18 19 -27 21 -39 7 -39 -5 0 -10 8 -10 18 0 10 -9 24 -20 32 -11 8
-20 20 -20 28 0 7 -4 11 -9 7 -11 -6 -8 -52 4 -63 4 -4 5 -1 1 6 -9 15 4 16
24 1 11 -8 12 -12 3 -16 -16 -6 -17 -29 -3 -38 6 -4 9 -3 8 2 -3 8 5 13 23 13
6 0 8 -9 4 -21 -5 -14 -3 -19 3 -15 6 3 14 1 18 -5 5 -8 3 -9 -6 -4 -10 6 -12
4 -7 -9 5 -12 3 -16 -5 -14 -7 3 -13 11 -13 18 0 22 -22 22 -28 0 -3 -11 0
-20 6 -20 8 0 8 -3 2 -8 -5 -4 -11 -14 -13 -22 -3 -11 1 -10 16 3 15 14 22 15
28 6 4 -7 3 -10 -4 -5 -6 4 -10 -1 -9 -13 1 -11 3 -18 6 -16 7 7 30 -28 31
-46 0 -9 7 -16 16 -15 9 0 19 -5 22 -13 3 -9 0 -11 -8 -6 -9 5 -11 4 -6 -4 11
-17 29 -2 21 18 -4 9 -9 25 -11 36 -2 11 -6 34 -10 50 -3 17 -8 38 -10 47 -3
11 0 15 13 13 10 -2 21 -4 26 -4 4 -1 7 -9 7 -18 -1 -16 -2 -16 -15 1 -13 18
-15 18 -15 3 0 -26 24 -97 32 -97 4 0 5 -6 2 -14 -3 -8 -1 -17 5 -21 17 -10
13 -35 -4 -29 -12 5 -14 2 -8 -12 6 -17 5 -18 -13 -4 -17 14 -18 14 -6 -2 7
-9 21 -15 30 -13 9 2 20 4 24 4 4 1 4 17 1 36 -5 31 -3 35 12 29 14 -6 16 -3
11 17 l-7 24 21 -25 c12 -14 19 -19 15 -12 -11 22 10 13 24 -10 12 -20 12 -21
0 -11 -11 9 -18 8 -33 -3 -10 -7 -23 -11 -29 -7 -6 3 -7 1 -3 -6 4 -6 11 -9
16 -6 4 3 11 -1 13 -7 3 -8 6 -6 6 5 1 9 6 17 12 17 5 0 7 -5 4 -10 -4 -6 -2
-9 2 -8 5 2 22 -10 37 -27 15 -16 25 -24 21 -18 -3 7 -1 21 4 30 9 16 10 16
11 -4 0 -12 5 -25 10 -28 6 -4 7 -12 3 -18 -5 -9 -3 -9 8 0 11 9 18 6 33 -15
11 -14 14 -22 8 -18 -7 4 -12 4 -12 -1 1 -14 31 -48 43 -48 24 -1 57 -26 57
-43 0 -15 -2 -15 -11 -2 -9 13 -10 13 -6 0 2 -8 12 -14 22 -12 10 2 14 -1 10
-8 -3 -6 -3 -10 2 -9 22 3 54 -15 49 -28 -3 -8 -2 -11 3 -8 5 3 12 1 16 -5 3
-5 11 -10 17 -10 6 0 5 7 -3 17 -11 16 -11 16 1 5 8 -7 15 -16 16 -20 0 -4 4
-15 8 -24 10 -22 30 -24 22 -2 -3 9 -2 12 5 9 6 -4 8 -13 5 -21 -3 -8 -1 -14
4 -14 6 0 10 -10 10 -22 0 -15 3 -19 8 -11 4 7 13 9 21 4 8 -5 10 -14 6 -21
-6 -10 -2 -12 14 -7 15 3 26 -1 33 -13 6 -10 18 -16 25 -13 9 3 16 -3 20 -15
2 -11 18 -26 34 -32 16 -7 29 -17 29 -22 0 -5 4 -7 9 -4 5 4 11 2 13 -3 1 -6
23 -12 48 -15 25 -2 78 -14 119 -26 41 -11 80 -19 88 -16 8 3 12 2 9 -3 -3 -5
41 -27 98 -50 l104 -41 153 10 c85 6 174 15 199 21 39 10 59 8 149 -15 119
-30 154 -32 96 -7 -22 10 -46 16 -52 13 -7 -2 -13 2 -13 10 0 7 9 14 20 15 11
1 20 -4 20 -10 0 -7 4 -6 10 3 5 8 10 11 10 6 0 -5 7 -3 15 4 11 9 15 10 15 1
0 -7 7 -19 15 -27 13 -14 15 -13 15 6 0 12 5 18 10 15 14 -9 12 -42 -2 -48 -7
-3 5 -5 27 -5 22 0 30 3 18 5 -28 5 -28 8 -4 32 10 10 21 25 25 32 5 11 7 11
12 1 5 -10 9 -10 21 -1 12 11 13 8 8 -17 l-6 -29 17 30 c10 18 19 25 22 17 3
-10 7 -10 18 -1 25 21 16 -20 -11 -46 -25 -26 -45 -32 -45 -15 0 5 -7 7 -15 4
-23 -9 -18 -24 8 -24 59 0 126 30 165 75 24 28 48 45 61 45 13 0 19 4 16 11
-5 7 -2 7 11 0 11 -5 40 -17 66 -25 45 -14 48 -14 58 5 7 13 21 19 44 19 29 0
34 4 39 29 7 34 0 65 -26 108 l-19 33 37 51 c20 28 34 54 30 57 -3 4 -11 0
-16 -8 -8 -12 -9 -11 -7 5 2 13 -2 19 -11 17 -8 -2 -18 3 -22 10 -6 9 -9 9 -9
1 0 -6 -8 -10 -17 -8 -11 1 -17 10 -15 21 2 18 2 18 -13 0 -13 -17 -15 -18
-15 -3 0 12 -8 17 -28 17 -15 0 -33 5 -40 12 -7 7 -12 8 -12 4 0 -5 -7 -3 -15
4 -9 7 -18 10 -21 7 -3 -3 -18 -2 -33 3 -16 4 -35 3 -45 -2 -26 -14 -66 -1
-66 21 0 16 6 18 43 16 136 -11 233 -12 254 -2 18 8 22 16 18 43 -3 26 0 34
12 34 9 0 13 3 10 7 -4 3 -34 5 -67 4 -39 -1 -67 3 -80 12 -20 14 -20 15 6 32
15 10 59 21 97 25 110 12 115 44 7 46 -128 3 -133 6 -70 42 22 12 40 27 40 32
0 6 9 10 20 10 11 0 20 5 20 10 0 6 6 10 14 10 8 0 16 7 20 15 4 11 -2 15 -23
15 -42 0 -45 24 -8 61 34 35 48 83 20 72 -13 -5 -13 -3 1 20 16 24 16 26 -4
40 -13 9 -17 17 -11 22 6 3 11 15 11 26 0 11 7 22 15 25 8 4 15 10 15 14 0 12
-33 5 -38 -8 -2 -7 -8 -10 -13 -6 -5 3 -5 13 2 25 6 11 8 26 6 34 -3 7 4 23
15 35 29 31 14 37 -17 6 -14 -14 -30 -26 -36 -26 -5 0 -12 -8 -16 -17 -4 -10
-24 -34 -45 -55 -23 -21 -35 -39 -29 -43 6 -3 15 -4 20 -1 5 3 11 0 14 -8 3
-8 -1 -17 -9 -20 -22 -8 -54 -7 -54 2 0 4 -28 7 -62 7 -96 0 -185 51 -225 129
-53 102 -81 283 -49 315 13 12 14 11 9 -9 l-6 -23 21 21 c12 12 22 25 22 29 0
3 13 18 28 32 16 14 37 39 47 54 16 24 16 30 4 38 -10 6 -21 1 -38 -19 -13
-15 -20 -22 -17 -15 11 20 -14 26 -39 9 -35 -23 -62 -54 -80 -92 -9 -19 -23
-34 -33 -34 -15 1 -16 2 -1 13 9 7 19 23 24 37 4 14 18 44 31 67 l24 42 -52
-17 c-29 -9 -74 -17 -100 -17 -25 0 -44 -3 -42 -6 7 -13 -43 -30 -96 -32 -30
-1 -61 -7 -69 -11 -9 -6 -12 -5 -8 1 3 5 -14 15 -39 21 -62 17 -148 67 -184
108 -16 19 -30 31 -30 27 0 -4 19 -27 43 -51 28 -29 35 -41 22 -37 -16 6 -16
3 5 -14 30 -24 132 -77 143 -73 4 1 7 -3 7 -8 0 -17 -37 -11 -77 12 -21 12
-40 25 -43 29 -3 3 -15 10 -28 14 -13 4 -21 9 -19 12 3 3 -10 25 -28 49 -18
24 -36 53 -40 64 -3 11 -11 20 -16 20 -6 0 -5 -8 1 -20 8 -16 8 -20 -2 -18 -8
2 -13 -7 -13 -22 0 -18 5 -25 19 -25 11 0 22 -7 24 -15 4 -12 2 -13 -9 -3 -9
7 -20 8 -28 4 -21 -13 -4 -30 24 -25 18 3 25 0 25 -10 0 -9 6 -13 13 -10 8 3
13 -6 15 -25 2 -25 -1 -29 -15 -24 -15 5 -14 3 2 -10 20 -15 40 -13 30 3 -6
10 25 23 34 14 3 -4 0 -9 -7 -11 -9 -4 -5 -12 13 -29 27 -25 41 -31 30 -15 -3
5 -1 12 3 15 5 3 15 -6 22 -20 11 -19 11 -27 2 -36 -17 -17 -15 -28 4 -28 8 0
12 -4 9 -10 -3 -6 -1 -10 4 -10 6 0 11 -7 11 -15 0 -9 6 -12 15 -9 13 5 13 8
0 21 -20 19 -19 22 4 16 14 -3 18 -12 15 -28 -5 -28 23 -56 32 -31 3 9 4 22 1
30 -3 8 4 24 16 37 13 14 22 18 25 11 2 -7 9 -9 14 -6 8 5 9 -3 5 -23 -5 -27
-4 -30 13 -26 15 4 18 11 14 29 -5 19 -2 23 15 21 12 -1 21 -4 21 -8 0 -8 -1
-8 93 11 37 7 67 17 67 21 0 4 7 10 16 13 13 5 15 2 11 -14 -3 -12 1 -33 9
-48 8 -15 14 -36 14 -47 0 -29 26 -110 54 -169 14 -29 28 -65 31 -81 l7 -30
-31 34 c-42 44 -51 33 -15 -16 16 -21 22 -32 13 -26 -9 7 -18 10 -22 7 -9 -9
-48 6 -42 17 4 5 -8 9 -25 9 -18 0 -29 4 -25 10 3 6 -5 14 -20 20 -28 11 -32
14 -87 62 -21 18 -38 38 -38 43 0 6 -11 26 -24 44 -32 43 -39 18 -9 -34 25
-43 29 -60 13 -50 -5 3 -10 -1 -10 -9 0 -9 -8 -16 -17 -17 -14 0 -13 -2 5 -9
12 -5 22 -12 22 -15 0 -4 -5 -3 -11 0 -5 4 -20 -1 -31 -12 -15 -13 -22 -15
-25 -6 -4 10 -8 10 -19 -1 -12 -12 -28 -13 -91 -4 -7 1 -10 5 -7 10 3 4 0 8
-6 8 -6 0 -8 5 -5 10 4 6 11 7 17 4 7 -4 8 -2 4 4 -10 16 -22 15 -40 -4 -10
-10 -16 -11 -16 -4 0 14 -48 5 -65 -11 -7 -7 -3 -8 10 -4 16 5 17 5 5 -3 -8
-6 -17 -9 -22 -6 -4 3 -16 -1 -27 -8 -17 -10 -23 -10 -33 1 -11 11 -9 13 10 8
14 -3 22 -1 22 8 0 23 -20 28 -39 11 -16 -15 -18 -14 -17 5 1 12 -5 24 -13 27
-10 3 -12 -4 -9 -32 4 -37 -10 -47 -40 -27 -11 7 -11 9 2 14 9 4 16 11 16 16
0 5 -23 1 -50 -9 -28 -10 -48 -14 -45 -9 4 5 -3 19 -14 31 -12 12 -21 16 -21
9 0 -7 -4 -9 -10 -6 -5 3 -10 15 -10 26 0 10 -4 19 -9 19 -5 0 -12 8 -15 17
-4 10 -4 14 0 11 8 -8 44 34 44 52 0 18 31 45 38 33 4 -6 15 -7 27 -2 18 7 18
8 -4 8 -13 1 -21 4 -18 8 4 3 -1 12 -11 20 -13 10 -14 13 -2 11 10 -2 15 6 16
22 1 39 -14 73 -28 63 -23 -14 -37 -12 -31 5 5 11 3 13 -8 7 -12 -7 -12 -6 -1
7 10 13 10 17 0 21 -9 4 -8 6 3 6 9 1 20 8 23 17 9 23 8 27 -9 20 -9 -3 -15 0
-15 9 0 8 7 15 15 15 8 0 15 5 15 11 0 5 -5 7 -12 3 -8 -5 -9 -2 -4 12 17 41
55 179 51 183 -6 5 -28 -48 -45 -104 -7 -25 -21 -45 -36 -52 -21 -10 -23 -9
-14 8 9 15 8 18 -7 12 -10 -3 -2 11 20 34 26 28 36 45 31 57 -5 14 -9 15 -15
4 -6 -8 -9 -1 -9 22 0 37 -30 113 -49 124 -15 9 -14 4 4 -30 8 -16 15 -38 15
-49 -1 -19 -1 -19 -19 2 -16 19 -21 20 -31 9 -7 -9 -9 -28 -4 -50 7 -39 -10
-51 -21 -16 -3 11 -13 20 -21 20 -8 0 -14 5 -14 11 0 8 -5 8 -15 -1 -12 -10
-15 -9 -16 6 -1 11 -1 22 0 26 0 5 -5 7 -12 5 -6 -1 -11 4 -10 10 4 18 -65 61
-107 69 -28 4 -32 3 -20 -6 12 -9 8 -10 -19 -5 -26 6 -32 4 -26 -5 5 -8 4 -11
-2 -7 -6 4 -21 -5 -34 -19 l-24 -26 40 21 c52 28 92 27 136 -3 36 -24 60 -65
73 -119 11 -47 -16 -27 -49 37 -35 68 -83 102 -130 90 -15 -4 -58 -35 -95 -70
-37 -35 -71 -60 -75 -56 -5 4 -5 1 -1 -6 5 -8 -4 -17 -28 -27 -31 -13 -40 -13
-70 -1 -18 8 -44 23 -57 35 -13 11 -33 26 -43 34 -14 11 -19 25 -18 56 2 53 7
61 32 56 18 -4 25 6 21 29 -1 5 5 6 14 2 17 -6 45 14 45 33 0 6 5 11 11 11 8
0 8 5 -1 15 -7 8 -16 13 -20 10 -13 -8 -40 6 -40 20 0 7 -8 19 -17 26 -14 12
-16 12 -9 -1 4 -8 -1 -6 -11 6 -27 30 -70 37 -76 12 -5 -18 -6 -18 -26 -2 -13
12 -17 22 -11 29 5 6 11 20 13 31 7 32 19 54 31 54 6 0 22 15 36 32 38 49 89
98 103 99 7 0 3 4 -8 9 -18 8 -18 9 5 9 17 1 21 4 12 9 -14 9 -6 42 10 42 5 0
6 9 3 20 -5 14 -2 20 9 20 9 0 16 7 16 16 0 9 10 25 22 35 20 18 20 19 2 19
-19 1 -19 1 0 15 16 12 16 15 4 15 -11 0 -14 10 -13 45 2 28 -2 45 -9 45 -6 1
7 16 28 35 22 19 36 35 33 35 -3 0 -22 -14 -41 -31 -23 -20 -33 -36 -30 -47 5
-13 4 -14 -4 -3 -5 7 -15 10 -21 7 -19 -12 -12 10 9 29 11 10 17 22 14 27 -3
5 -15 1 -27 -9 -19 -17 -20 -17 -14 0 4 9 2 17 -4 17 -5 0 -2 11 7 25 9 14 20
22 25 19 10 -6 12 9 2 19 -10 11 -52 -53 -47 -71 5 -14 4 -14 -6 1 -6 9 -8 22
-5 27 10 17 -17 11 -38 -7 -11 -10 -17 -13 -14 -6 4 6 3 13 -3 15 -5 1 7 21
28 43 21 22 43 53 50 68 7 15 17 25 22 22 6 -3 10 5 10 19 0 14 5 26 11 26 5
0 7 5 4 10 -6 10 -45 -29 -45 -46 0 -4 -12 -23 -26 -41 -18 -23 -32 -33 -44
-30 -12 3 -17 0 -13 -8 3 -10 -2 -12 -16 -8 -12 3 -27 1 -34 -3 -7 -5 1 3 18
19 17 15 38 25 48 23 15 -4 16 -2 6 10 -9 11 -4 23 27 61 34 43 25 41 -24 -4
-7 -7 -17 -13 -22 -13 -5 0 -11 6 -14 13 -3 6 -4 3 -1 -9 3 -12 -1 -27 -10
-34 -10 -8 -15 -9 -15 -1 0 6 6 11 13 12 6 1 2 4 -11 7 l-22 7 22 25 c38 41
54 64 41 56 -16 -9 -16 -1 -2 27 7 12 -7 1 -30 -25 -24 -27 -46 -48 -50 -48
-12 0 -6 32 12 68 10 17 13 32 8 32 -6 0 -9 12 -7 28 2 15 1 20 -1 12 -3 -8
-14 -26 -24 -39 l-19 -24 0 24 c0 45 21 190 30 207 26 51 40 94 34 104 -4 7
-3 8 4 4 7 -4 15 9 22 36 6 24 15 52 21 63 8 17 9 16 4 -7 -7 -35 -12 -34 160
-2 151 28 178 27 252 -12 l48 -26 -30 32 c-16 17 -43 39 -59 47 -36 19 -196
26 -196 9 0 -7 -3 -7 -8 1 -6 10 -21 10 -70 1 -33 -6 -59 -15 -57 -19 3 -4 -4
-5 -16 -2 -17 5 -19 11 -14 32 4 14 10 73 14 131 6 95 4 111 -17 165 -29 76
-34 219 -8 279 21 51 20 54 -9 26 -17 -16 -23 -30 -19 -44 4 -17 3 -18 -5 -6
-8 12 -12 10 -20 -10 l-10 -25 -1 30 c-1 17 -4 23 -7 15 -2 -8 -7 -22 -9 -30
-5 -13 -6 -13 -15 0 -7 11 -8 6 -4 -17 6 -29 4 -33 -14 -33 -18 0 -21 6 -21
41 0 34 -2 39 -14 30 -11 -9 -15 -9 -19 1 -3 7 -6 4 -6 -7 -1 -17 -3 -17 -11
-5 -7 12 -10 8 -11 -15 0 -27 -2 -28 -10 -10 -7 15 -8 12 -4 -15 2 -19 6 -44
7 -55 2 -11 8 -23 13 -27 6 -5 3 -14 -7 -24 -14 -15 -18 -15 -22 -3 -2 8 -10
31 -16 52 -12 37 -25 47 -33 25 -3 -10 -9 -10 -25 -1 -17 10 -21 9 -25 -7 -4
-14 -11 -17 -27 -13 -20 5 -22 3 -17 -16 5 -22 5 -22 -19 -6 -25 16 -25 16
-15 -4 10 -17 9 -20 -4 -15 -11 4 -15 0 -15 -16 0 -17 -4 -20 -20 -15 -14 5
-20 2 -20 -9 0 -9 -5 -16 -11 -16 -6 0 -9 -6 -6 -14 4 -9 0 -12 -13 -9 -24 6
-33 -12 -19 -38 l11 -22 -29 21 c-26 19 -30 19 -30 4 0 -9 5 -20 11 -24 7 -5
4 -8 -6 -8 -10 0 -18 5 -18 10 0 6 -7 10 -15 10 -14 0 -14 -3 -1 -23 14 -21
14 -24 -4 -35 -16 -10 -21 -9 -29 6 -10 16 -10 16 -11 -2 0 -11 8 -28 17 -38
17 -19 16 -19 -10 -13 -27 7 -28 6 -21 -21 5 -24 4 -27 -7 -17 -15 15 -24 57
-9 48 14 -9 12 8 -2 24 -11 11 -10 12 0 6 11 -6 12 -3 4 11 -5 11 -7 25 -4 33
3 8 0 11 -7 7 -6 -4 -11 -2 -11 4 0 6 -10 8 -26 4 -20 -5 -25 -4 -19 6 4 7 2
15 -4 20 -7 4 -14 16 -15 26 -3 16 -11 19 -52 17 l-49 -1 35 15 35 16 -35 8
c-19 5 -41 6 -49 4 -9 -4 -12 1 -9 13 4 15 1 18 -20 14 -17 -3 -23 -1 -18 7 7
11 -23 16 -86 13 -20 0 -25 3 -21 14 4 12 0 14 -23 8 -16 -4 -37 -11 -46 -15
-22 -12 -31 -11 -23 1 11 18 -42 10 -68 -10 -14 -11 -31 -20 -39 -20 -17 -1
-118 -50 -142 -70 -38 -30 -129 -116 -149 -140 -12 -13 -72 -74 -132 -135
-143 -143 -153 -155 -503 -589 -41 -50 -99 -118 -131 -151 -49 -52 -108 -119
-230 -262 -16 -18 -27 -34 -25 -36 2 -1 -17 -24 -41 -51 -25 -26 -45 -50 -45
-53 0 -9 -29 -33 -40 -33 -7 0 -9 8 -5 19 4 13 -1 20 -17 25 -20 6 -21 8 -6
14 10 4 14 12 10 18 -11 17 -36 22 -47 10 -5 -6 -36 -42 -69 -79 -58 -67 -106
-102 -129 -94 -7 2 -21 -3 -31 -12 -11 -9 -17 -11 -13 -6 3 6 2 17 -4 25 -6
11 -9 12 -9 2 0 -7 -4 -11 -9 -7 -5 3 -16 -3 -23 -14 -16 -23 -57 -35 -77 -22
-12 8 -12 13 3 36 19 29 12 50 -7 25 -19 -25 -60 -47 -95 -52 -27 -4 -32 -2
-26 11 3 9 9 25 12 36 5 18 4 18 -23 -3 -15 -12 -32 -22 -37 -22 -6 0 -27 -13
-48 -30 -46 -36 -58 -38 -36 -5 9 13 16 32 16 42 0 13 -9 8 -36 -21 -19 -21
-37 -36 -40 -33 -3 3 6 28 20 56 28 55 23 71 -6 20 -10 -17 -21 -28 -25 -26
-10 6 -34 -19 -26 -27 4 -3 -3 -6 -15 -6 -25 0 -28 16 -9 45 7 11 24 38 37 60
l24 40 -59 -52 c-32 -29 -63 -53 -68 -53 -5 0 -7 14 -3 32 7 35 6 34 -43 -30
-37 -48 -75 -75 -64 -45 4 10 23 43 43 73 20 30 42 65 49 77 10 20 9 22 -6 16
-10 -3 -30 -17 -45 -31 -43 -39 -41 -22 2 36 22 29 36 52 32 52 -5 0 -37 -29
-73 -65 -35 -35 -67 -65 -71 -65 -4 0 -3 12 2 26 15 38 12 42 -10 14 -15 -20
-21 -22 -31 -13 -12 12 -10 17 80 144 18 26 0 24 -28 -3 -13 -12 -36 -21 -52
-21 -15 0 -26 -5 -22 -10 5 -9 -104 -127 -118 -127 -4 0 -10 7 -13 15 -7 19
63 135 81 135 7 0 13 7 13 15 0 8 -3 15 -6 15 -13 0 -117 -117 -161 -182 -26
-38 -50 -68 -55 -68 -5 0 -14 14 -19 30 -6 17 -15 30 -19 30 -22 0 -40 -14
-40 -32 0 -11 -7 -26 -15 -34 -8 -9 -15 -28 -15 -44 0 -41 -19 -48 -27 -10 -7
36 -16 26 -28 -29 -4 -18 -20 -52 -36 -76 -18 -27 -31 -60 -34 -90 -2 -26 -10
-55 -18 -64 -18 -20 -20 -76 -3 -90 11 -9 15 -1 20 36 7 50 21 82 31 71 8 -7
8 -23 -1 -133 -14 -177 -4 -502 20 -616 8 -42 16 -100 17 -130 1 -30 8 -74 15
-99 8 -25 14 -76 14 -115 0 -203 64 -433 192 -688 16 -33 25 -56 19 -53 -30
19 -181 346 -214 466 -9 30 -21 125 -27 210 -6 85 -23 216 -37 290 -25 130
-32 240 -23 362 4 60 -4 83 -21 58 -8 -13 -10 -13 -19 0 -7 10 -6 18 3 25 6 6
13 21 14 35 1 14 -1 19 -3 13 -3 -7 -10 -13 -15 -13 -11 0 -12 77 -1 84 10 6
8 104 -2 113 -3 3 -3 15 -1 27 5 22 -9 55 -20 45 -3 -3 -6 -23 -8 -45 -1 -21
-8 -43 -14 -49 -20 -16 -45 -125 -40 -173 7 -66 22 -69 24 -4 2 67 12 120 24
128 5 2 6 -41 4 -96 -4 -100 -4 -101 20 -110 22 -9 25 -15 25 -65 0 -30 -4
-55 -9 -55 -16 0 -18 -43 -4 -72 8 -16 9 -29 3 -33 -11 -7 -49 13 -67 35 -7 9
-12 10 -13 4 0 -7 18 -30 40 -52 58 -57 51 -85 -10 -42 -16 11 -31 16 -34 11
-3 -5 13 -21 37 -37 40 -27 41 -28 18 -34 -21 -5 -22 -7 -7 -19 20 -17 11 -34
-15 -26 -23 8 -25 -11 -4 -39 11 -14 11 -22 2 -37 -6 -10 -19 -19 -27 -19 -10
-1 -6 -8 12 -24 28 -25 28 -39 0 -29 -13 5 -11 0 6 -19 12 -13 22 -35 21 -49
0 -13 -3 -18 -6 -11 -5 14 -33 17 -33 3 0 -5 7 -14 15 -21 8 -7 15 -9 15 -6 0
4 7 1 15 -8 20 -19 19 -32 0 -16 -9 7 -19 10 -23 6 -4 -4 2 -14 12 -22 17 -12
17 -14 3 -20 -9 -3 -21 -3 -26 1 -7 3 -8 0 -5 -9 3 -9 15 -16 25 -16 22 0 23
-4 9 -30 -7 -13 -6 -21 5 -30 20 -16 19 -34 -1 -26 -12 4 -14 1 -9 -14 4 -11
4 -20 1 -20 -2 0 -12 22 -21 50 -9 27 -21 53 -27 56 -6 4 -5 -2 1 -15 7 -11 9
-21 7 -21 -8 0 95 -285 148 -409 15 -35 38 -103 52 -150 13 -47 44 -129 68
-181 24 -52 70 -158 102 -234 33 -77 76 -167 96 -200 96 -156 110 -203 93
-313 -11 -71 0 -118 38 -157 95 -99 137 -167 162 -263 33 -127 15 -201 -73
-296 -26 -27 -63 -77 -82 -110 -34 -59 -37 -61 -80 -64 -25 -2 -56 1 -70 7
-14 5 -61 12 -105 14 -44 2 -118 12 -164 20 -60 12 -94 13 -115 7 -17 -5 -80
-10 -139 -10 -63 -1 -147 -9 -200 -19 -76 -16 -143 -20 -189 -13 -5 0 -8 8 -8
16 0 13 -7 15 -38 9 -74 -13 -72 -19 45 -160 112 -134 364 -398 444 -464 45
-38 46 -39 156 -46 l110 -7 119 -94 c152 -120 402 -289 572 -387 1478 -849
3297 -841 4757 20 72 42 136 77 143 77 6 0 12 3 12 7 0 3 53 42 117 86 65 43
126 86 138 95 87 71 275 219 275 217 0 -2 34 29 75 69 144 137 226 208 241
208 8 0 19 6 23 14 5 8 16 11 24 8 11 -4 14 -1 10 9 -3 7 -9 14 -14 14 -17 0
-9 15 29 55 220 234 488 600 655 895 469 832 678 1791 596 2740 -143 1657
-1166 3138 -2664 3856 -512 245 -1013 386 -1595 450 -153 16 -587 25 -730 15z
m1160 -2136 c0 -5 -5 -3 -10 5 -5 8 -10 20 -10 25 0 6 5 3 10 -5 5 -8 10 -19
10 -25z m-61 -86 c-18 -11 -18 -9 -23 42 l-4 44 20 -39 c16 -31 17 -40 7 -47z
m106 63 c-3 -3 -11 0 -18 7 -9 10 -8 11 6 5 10 -3 15 -9 12 -12z m-139 -47 c0
-19 -3 -32 -8 -29 -4 3 -8 -2 -8 -11 0 -9 -4 -14 -9 -11 -8 5 -7 27 3 71 2 11
5 22 5 24 1 2 4 1 9 -3 4 -4 7 -23 8 -41z m-43 -50 c4 -8 2 -17 -3 -20 -6 -4
-10 3 -10 14 0 25 6 27 13 6z m-46 -1 c-3 -3 -12 -4 -19 -1 -8 3 -5 6 6 6 11
1 17 -2 13 -5z m-313 -103 c-7 -7 -34 21 -28 31 3 5 12 1 19 -9 7 -10 12 -20
9 -22z m31 -121 c3 -5 2 -10 -4 -10 -5 0 -13 5 -16 10 -3 6 -2 10 4 10 5 0 13
-4 16 -10z m-65 -150 c8 -5 11 -10 5 -10 -5 0 -17 5 -25 10 -8 5 -10 10 -5 10
6 0 17 -5 25 -10z m89 -87 c6 -10 11 -13 11 -8 1 18 20 -19 20 -39 0 -11 7
-27 16 -37 12 -13 13 -22 5 -38 -8 -14 -8 -22 1 -27 7 -5 8 -3 3 6 -5 9 -4 11
4 6 9 -6 9 -11 0 -22 -6 -8 -7 -14 -3 -14 5 0 21 -21 34 -47 14 -27 47 -69 73
-95 50 -48 59 -51 187 -61 l35 -2 -29 -27 c-19 -18 -40 -28 -60 -28 -25 0 -34
-6 -45 -30 -10 -24 -16 -28 -26 -20 -10 8 -17 5 -29 -12 -9 -12 -16 -26 -16
-30 0 -14 -42 -119 -46 -115 -2 2 2 19 10 38 32 80 24 78 -19 -6 -25 -49 -49
-92 -53 -95 -10 -7 -42 -62 -49 -82 -3 -10 -9 -18 -14 -18 -5 0 -5 7 -2 17 5
11 3 14 -6 9 -16 -11 8 38 67 132 25 39 49 72 54 72 4 0 8 7 8 15 0 15 -12 8
-60 -35 -54 -49 -196 -134 -210 -125 -5 3 -12 0 -15 -6 -4 -5 -14 -8 -22 -5
-8 4 -35 -7 -59 -24 -25 -16 -47 -30 -49 -30 -8 0 5 44 18 59 8 9 13 21 10 27
-10 29 211 209 328 266 l65 33 -43 29 c-24 15 -51 42 -60 59 -16 31 -16 31
-25 8 -5 -15 -13 -21 -23 -17 -8 3 -15 2 -15 -2 0 -5 -16 -14 -35 -21 -19 -7
-35 -17 -35 -22 0 -5 -7 -9 -15 -9 -8 0 -15 -4 -15 -10 0 -5 -9 -10 -21 -10
-11 0 -17 -4 -14 -10 3 -5 -3 -10 -14 -10 -11 0 -25 -8 -30 -17 -6 -10 -11
-14 -11 -10 0 4 -11 -4 -25 -19 -14 -15 -25 -23 -25 -18 0 4 -5 3 -11 -3 -6
-6 -18 -9 -25 -6 -8 3 -14 0 -14 -5 0 -6 -16 -14 -35 -18 -19 -3 -33 -9 -31
-13 4 -5 -23 -6 -75 -2 -8 0 -24 8 -35 17 -18 15 -18 15 9 9 19 -4 26 -2 22 5
-3 5 -11 10 -16 10 -6 0 -22 14 -36 30 -13 17 -30 27 -36 24 -9 -5 -9 -3 0 6
17 19 -12 60 -43 60 -13 0 -24 4 -24 9 0 4 12 8 27 7 29 -1 42 28 16 38 -11 4
-13 2 -9 -9 5 -14 2 -14 -24 0 -31 16 -48 35 -31 35 5 0 12 -4 16 -10 3 -5 13
-6 23 -2 12 4 1 11 -38 23 -30 10 -47 18 -37 18 9 1 17 6 17 12 0 7 10 9 28 5
l27 -6 -25 15 c-22 12 -22 14 -6 15 24 0 11 16 -19 23 -18 4 -17 5 3 6 14 1
22 6 19 14 -2 6 -10 11 -16 9 -7 -1 -22 5 -34 14 -21 16 -21 16 16 11 46 -7
47 -1 5 18 -18 8 -26 14 -18 15 9 0 6 6 -9 16 -21 15 -22 18 -7 26 30 17 90
10 151 -17 103 -47 166 -65 293 -86 133 -22 190 -22 218 -2 16 11 16 13 1 19
-20 7 -23 50 -4 57 9 3 9 7 1 18 -9 11 -9 16 0 24 20 17 34 15 29 -4 -3 -10 1
-22 8 -26 7 -5 10 -4 5 3 -3 5 -1 12 6 14 8 3 6 13 -9 31 -14 18 -23 23 -26
15 -3 -7 -4 -3 -4 10 1 26 12 29 26 5z m-659 -213 c0 -5 -5 -10 -11 -10 -5 0
-7 5 -4 10 3 6 8 10 11 10 2 0 4 -4 4 -10z m1182 -172 c-7 -7 -12 -8 -12 -2 0
14 12 26 19 19 2 -3 -1 -11 -7 -17z m-1032 -88 c0 -5 -4 -10 -10 -10 -5 0 -10
5 -10 10 0 6 5 10 10 10 6 0 10 -4 10 -10z m390 -15 c7 -9 8 -15 2 -15 -5 0
-12 7 -16 15 -3 8 -4 15 -2 15 2 0 9 -7 16 -15z m313 -78 c-3 -20 -9 -37 -13
-37 -4 0 -3 18 2 40 13 50 20 48 11 -3z m14 -19 c-3 -8 -6 -5 -6 6 -1 11 2 17
5 13 3 -3 4 -12 1 -19z m1 -73 c-3 -3 -9 2 -12 12 -6 14 -5 15 5 6 7 -7 10
-15 7 -18z m-18 -20 c0 -5 -5 -3 -10 5 -5 8 -10 20 -10 25 0 6 5 3 10 -5 5 -8
10 -19 10 -25z m-79 -28 c-10 -9 -11 -8 -5 6 3 10 9 15 12 12 3 -3 0 -11 -7
-18z m29 -17 c0 -5 -2 -10 -4 -10 -3 0 -8 5 -11 10 -3 6 -1 10 4 10 6 0 11 -4
11 -10z m-59 -43 c-10 -9 -11 -8 -5 6 3 10 9 15 12 12 3 -3 0 -11 -7 -18z
m-87 -43 c3 -8 2 -12 -4 -9 -6 3 -10 10 -10 16 0 14 7 11 14 -7z m26 -66 c-10
-21 -10 -20 -5 7 5 28 4 29 -10 11 -18 -23 -20 -14 -4 16 10 18 13 19 20 5 5
-9 5 -25 -1 -39z m21 -30 c-3 -21 -6 -26 -9 -15 -3 17 3 47 11 47 2 0 1 -15
-2 -32z m-51 18 c0 -2 -7 -9 -15 -16 -13 -11 -14 -10 -9 4 5 14 24 23 24 12z
m18 -41 c-3 -3 -9 2 -12 12 -6 14 -5 15 5 6 7 -7 10 -15 7 -18z m-46 -7 c-16
-16 -15 -31 1 -22 9 5 9 4 0 -6 -7 -8 -15 -11 -19 -8 -9 10 6 48 19 48 8 0 8
-3 -1 -12z m-2022 -33 c16 -19 0 -19 -26 0 -16 12 -16 14 -3 15 9 0 22 -7 29
-15z m1710 -35 c-5 -22 -8 -27 -9 -13 -1 21 9 56 14 51 2 -2 0 -19 -5 -38z
m35 18 c-6 -17 -4 -20 9 -15 10 4 16 1 16 -7 0 -20 -12 -27 -26 -15 -10 9 -13
5 -11 -18 1 -15 5 -31 10 -34 4 -3 -2 -15 -13 -27 -11 -11 -20 -27 -20 -34 0
-9 3 -9 10 2 10 16 14 8 11 -22 -1 -10 3 -18 9 -18 6 0 8 -5 4 -11 -3 -6 -7
-32 -9 -57 -1 -26 0 -41 2 -34 10 26 18 10 19 -35 0 -49 10 -108 21 -127 4 -7
1 -6 -7 1 -17 15 -43 128 -42 183 0 32 -2 39 -8 25 -5 -15 -10 -5 -16 40 -4
33 -7 67 -6 75 5 32 43 150 48 150 3 0 2 -10 -1 -22z m263 -57 c-11 -69 -22
-82 -15 -19 3 27 2 46 -3 43 -9 -5 -19 -64 -27 -155 -7 -83 -13 -90 -13 -14 1
94 29 201 54 201 10 0 10 -13 4 -56z m-1988 40 c0 -13 -29 -35 -37 -27 -3 3
-1 6 5 6 7 0 11 3 11 8 -3 14 1 22 11 22 6 0 10 -4 10 -9z m2057 -13 c-3 -8
-6 -5 -6 6 -1 11 2 17 5 13 3 -3 4 -12 1 -19z m-624 -8 c-3 -12 -8 -19 -11
-16 -5 6 5 36 12 36 2 0 2 -9 -1 -20z m14 -42 c-3 -7 -5 -2 -5 12 0 14 2 19 5
13 2 -7 2 -19 0 -25z m563 -57 c-5 -10 -7 -21 -5 -25 3 -3 2 -4 -2 -1 -11 9
-14 45 -4 45 6 0 8 17 6 38 l-5 37 10 -38 c6 -25 7 -45 0 -56z m37 52 c-3 -10
-5 -4 -5 12 0 17 2 24 5 18 2 -7 2 -21 0 -30z m-624 -8 c-3 -9 -8 -14 -10 -11
-3 3 -2 9 2 15 9 16 15 13 8 -4z m6 -110 c-13 -109 -17 -114 -18 -22 -1 45 3
77 9 77 6 0 10 8 10 17 0 9 2 14 4 12 3 -2 0 -40 -5 -84z m318 60 c0 -8 -4
-12 -9 -9 -5 3 -6 10 -3 15 9 13 12 11 12 -6z m220 -22 c-3 -10 -5 -4 -5 12 0
17 2 24 5 18 2 -7 2 -21 0 -30z m24 -54 l-10 -24 0 26 c-1 14 2 29 6 33 12 12
14 -9 4 -35z m-24 -1 c-3 -7 -5 -2 -5 12 0 14 2 19 5 13 2 -7 2 -19 0 -25z
m573 -3 c-7 -9 -15 -13 -18 -10 -3 2 1 11 8 20 7 9 15 13 18 10 3 -2 -1 -11
-8 -20z m10 -44 c13 -26 14 -26 -15 -27 -18 -1 -25 3 -25 15 0 35 24 41 40 12z
m-1084 -18 c-7 -7 -26 7 -26 19 0 6 6 6 15 -2 9 -7 13 -15 11 -17z m1164 16
c0 -5 5 -7 10 -4 6 3 10 1 10 -4 0 -17 -27 -13 -34 4 -3 8 -1 15 4 15 6 0 10
-5 10 -11z m-2337 -44 c-3 -9 -8 -14 -10 -11 -3 3 -2 9 2 15 9 16 15 13 8 -4z
m1137 -30 c0 -14 4 -25 8 -25 11 0 3 -58 -9 -65 -4 -3 -7 10 -5 30 1 19 -1 35
-5 35 -3 0 -6 11 -6 25 0 14 3 25 8 25 5 0 9 -11 9 -25z m-2973 -20 c-4 -8
-14 -15 -23 -15 -16 0 -16 2 1 20 20 22 31 20 22 -5z m1913 10 c0 -8 -4 -15
-10 -15 -5 0 -7 7 -4 15 4 8 8 15 10 15 2 0 4 -7 4 -15z m1092 -37 c-8 -8 -9
-4 -5 13 4 13 8 18 11 10 2 -7 -1 -18 -6 -23z m535 -20 c-3 -8 -6 -5 -6 6 -1
11 2 17 5 13 3 -3 4 -12 1 -19z m-2444 -3 c-3 -9 -8 -14 -10 -11 -3 3 -2 9 2
15 9 16 15 13 8 -4z m1903 -52 c-6 -36 -6 -37 10 -18 16 20 16 19 8 -5 -10
-35 -11 -109 0 -103 4 3 5 -10 1 -28 -7 -31 -6 -33 10 -19 16 14 17 12 11 -17
-4 -19 -3 -34 4 -38 5 -3 8 -11 5 -16 -4 -5 -1 -9 5 -9 7 0 9 -19 5 -57 -9
-96 -25 -80 -29 29 -1 14 -4 24 -7 22 -4 -2 -9 13 -12 34 -3 20 -12 79 -20
131 -11 64 -13 100 -6 113 16 29 22 21 15 -19z m569 -62 c3 -6 1 -11 -4 -11
-6 0 -11 -7 -11 -16 0 -8 5 -12 10 -9 6 3 10 1 10 -5 0 -7 -6 -10 -12 -8 -9 3
-13 29 -14 79 -1 67 -1 69 6 27 5 -26 11 -52 15 -57z m-2500 50 c-7 -21 -21
-54 -30 -72 -30 -57 -74 -188 -85 -252 -6 -34 -17 -80 -24 -102 -8 -22 -17
-69 -20 -105 -4 -36 -13 -68 -19 -72 -9 -6 -9 -10 1 -16 15 -10 6 -38 -15 -46
-13 -5 -14 3 -10 51 16 162 78 370 171 576 38 82 54 102 31 38z m705 14 c0
-14 -9 -34 -21 -46 -28 -28 -34 -18 -8 15 11 15 18 33 15 41 -3 8 -1 15 4 15
6 0 10 -11 10 -25z m1538 -30 c-3 -3 -9 2 -12 12 -6 14 -5 15 5 6 7 -7 10 -15
7 -18z m1348 -9 c36 -36 44 -63 19 -63 -8 0 -12 4 -9 9 3 4 1 8 -5 8 -5 0 -13
-5 -16 -10 -10 -16 -25 -1 -25 26 0 51 -101 23 -153 -43 -10 -13 -23 -23 -29
-23 -7 0 -25 -15 -41 -32 -16 -18 -24 -25 -17 -15 13 17 2 24 -15 9 -6 -5 -21
-6 -35 -2 -22 5 -19 7 18 13 36 6 57 20 122 82 69 65 83 75 115 75 29 0 45 -8
71 -34z m-4386 -18 c-5 -18 -12 -44 -15 -58 -4 -14 -11 -42 -17 -63 -5 -24
-13 -35 -20 -31 -8 5 -9 2 -5 -9 3 -10 2 -17 -3 -17 -16 0 -11 43 9 80 10 19
24 53 31 75 7 22 15 43 17 48 9 16 10 5 3 -25z m4628 -33 c-3 -3 -9 2 -12 12
-6 14 -5 15 5 6 7 -7 10 -15 7 -18z m-738 5 c0 -5 -2 -10 -4 -10 -3 0 -8 5
-11 10 -3 6 -1 10 4 10 6 0 11 -4 11 -10z m618 -45 c0 -16 -2 -15 -8 5 -11 34
-11 60 0 35 5 -11 8 -29 8 -40z m-3268 35 c0 -5 -4 -10 -10 -10 -5 0 -10 5
-10 10 0 6 5 10 10 10 6 0 10 -4 10 -10z m1835 -29 c2 -13 -1 -29 -8 -35 -10
-10 -12 -3 -14 32 -2 46 13 47 22 3z m860 19 c3 -5 1 -10 -4 -10 -6 0 -11 5
-11 10 0 6 2 10 4 10 3 0 8 -4 11 -10z m405 0 c0 -5 -2 -10 -4 -10 -3 0 -8 5
-11 10 -3 6 -1 10 4 10 6 0 11 -4 11 -10z m200 0 c0 -5 -5 -10 -11 -10 -5 0
-7 5 -4 10 3 6 8 10 11 10 2 0 4 -4 4 -10z m-716 -22 c-4 -6 1 -17 11 -24 18
-13 29 -74 14 -74 -5 0 -9 5 -9 10 0 6 -7 10 -16 10 -11 0 -14 5 -10 17 4 9 3
19 -2 22 -10 6 2 51 13 51 4 0 3 -5 -1 -12z m-3716 -69 c-19 -12 -22 7 -7 44
l14 32 3 -34 c2 -20 -2 -37 -10 -42z m3192 45 c0 -20 -7 -17 -20 6 -9 16 -8
18 5 14 8 -4 15 -12 15 -20z m490 -19 c0 -5 -5 -3 -10 5 -5 8 -10 20 -10 25 0
6 5 3 10 -5 5 -8 10 -19 10 -25z m-696 -40 c-2 -25 1 -45 7 -45 5 0 9 -5 9
-11 0 -6 -7 -8 -16 -5 -13 5 -14 3 -6 -7 6 -7 12 -36 13 -65 1 -28 6 -57 11
-64 4 -7 6 19 3 57 l-4 70 10 -60 c6 -39 6 -76 0 -106 -10 -45 -5 -119 8 -119
3 0 7 -26 8 -58 2 -31 5 -77 9 -101 7 -56 -12 -46 -21 12 -4 23 -9 51 -11 62
-3 11 -7 53 -9 93 -2 40 -7 77 -10 81 -3 5 -9 51 -15 102 -5 52 -13 116 -16
143 -5 33 -4 47 3 43 6 -4 13 0 17 8 9 26 12 17 10 -30z m656 35 c0 -5 -5 -10
-11 -10 -5 0 -7 5 -4 10 3 6 8 10 11 10 2 0 4 -4 4 -10z m-450 -12 c0 -4 -7
-8 -15 -8 -8 0 -15 4 -15 8 0 5 7 9 15 9 8 0 15 -4 15 -9z m383 -13 c-3 -9 -8
-14 -10 -11 -3 3 -2 9 2 15 9 16 15 13 8 -4z m-890 -10 c-3 -9 -8 -14 -10 -11
-3 3 -2 9 2 15 9 16 15 13 8 -4z m1357 -22 c0 -14 10 -42 22 -61 15 -25 18
-37 10 -40 -7 -2 -10 -9 -6 -15 3 -7 -11 6 -30 28 -20 23 -33 46 -30 55 3 8 2
11 -2 8 -11 -12 -44 11 -44 31 0 14 6 18 25 16 14 -2 27 1 31 6 9 16 24 -1 24
-28z m-442 -23 c-1 -31 -18 -32 -18 -1 0 15 8 31 16 31 1 0 2 -13 2 -30z m48
3 c-7 -7 -26 7 -26 19 0 6 6 6 15 -2 9 -7 13 -15 11 -17z m851 11 c-3 -3 -12
-4 -19 -1 -8 3 -5 6 6 6 11 1 17 -2 13 -5z m37 -10 c5 -14 4 -15 -9 -4 -17 14
-19 20 -6 20 5 0 12 -7 15 -16z m960 1 c-4 -8 -11 -15 -16 -15 -6 0 -5 6 2 15
7 8 14 15 16 15 2 0 1 -7 -2 -15z m-534 -5 c8 -5 11 -10 5 -10 -5 0 -17 5 -25
10 -8 5 -10 10 -5 10 6 0 17 -5 25 -10z m-5120 -12 c0 -7 -4 -19 -9 -27 -11
-17 -23 1 -15 23 7 19 24 21 24 4z m1298 -8 c-14 -22 -24 -19 -15 5 4 8 11 15
17 15 6 0 6 -7 -2 -20z m-88 6 c0 -3 -4 -8 -10 -11 -5 -3 -10 -1 -10 4 0 6 5
11 10 11 6 0 10 -2 10 -4z m3450 -5 c0 -6 -4 -13 -10 -16 -5 -3 -10 1 -10 9 0
9 5 16 10 16 6 0 10 -4 10 -9z m-850 -16 c-7 -9 -15 -13 -17 -11 -7 7 7 26 19
26 6 0 6 -6 -2 -15z m344 -29 c-4 -17 3 -33 30 -62 20 -22 31 -41 25 -43 -15
-5 -33 16 -63 72 -19 38 -22 48 -10 43 12 -5 15 -2 10 9 -3 9 -2 13 4 10 6 -3
7 -17 4 -29z m-2942 12 c-5 -7 -8 -27 -6 -45 2 -18 -1 -35 -6 -38 -13 -8 -13
-65 0 -65 6 0 10 7 10 15 0 8 5 15 11 15 6 0 7 -8 3 -22 -9 -26 -9 -52 -1 -85
7 -29 26 -62 27 -47 0 7 7 14 15 18 21 8 19 -20 -3 -42 -13 -13 -15 -21 -7
-29 7 -8 17 -3 33 16 22 25 23 25 19 3 -3 -12 -1 -20 4 -16 5 3 9 -1 9 -10 0
-8 5 -16 12 -18 8 -3 8 -12 0 -33 -9 -26 -11 -27 -11 -7 -1 12 -6 22 -12 22
-5 0 -7 -5 -3 -12 5 -7 3 -8 -5 -4 -7 5 -21 0 -32 -10 -18 -16 -19 -16 -19 0
0 9 -5 14 -10 11 -6 -4 -9 -22 -8 -41 1 -22 -3 -39 -12 -45 -13 -8 -13 -10 -1
-18 12 -8 12 -12 -3 -26 -12 -13 -14 -21 -7 -28 15 -15 14 -50 -1 -66 -8 -8
-8 -11 -2 -8 29 16 50 -62 24 -86 -10 -9 -11 -9 -5 3 7 13 6 13 -7 2 -13 -11
-16 -5 -22 49 -5 40 -4 64 3 68 7 4 3 13 -9 24 -18 15 -20 15 -29 -1 -6 -9
-11 -13 -11 -8 0 5 -7 3 -15 -4 -9 -8 -15 -9 -15 -2 0 6 5 14 10 17 6 3 10 16
10 28 0 20 0 20 -15 1 -12 -16 -16 -17 -24 -4 -7 10 -6 19 3 30 26 29 27 55 5
79 -18 19 -20 27 -10 47 6 14 11 36 11 49 0 13 4 25 8 27 14 5 24 58 11 58 -6
0 -9 7 -5 15 3 9 0 15 -9 15 -21 0 -19 17 4 29 17 10 37 55 32 75 -3 15 20 35
35 29 8 -3 14 0 14 6 0 6 -7 11 -15 11 -8 0 -15 7 -15 15 0 8 4 15 9 15 5 0
13 9 16 20 3 11 11 20 17 20 7 0 7 -4 0 -12z m-155 -20 c-3 -8 -6 -5 -6 6 -1
11 2 17 5 13 3 -3 4 -12 1 -19z m-857 -3 c0 -8 -7 -15 -15 -15 -26 0 -18 20
13 29 1 1 2 -6 2 -14z m4006 -32 c15 -20 23 -33 16 -29 -13 8 -56 66 -49 66 3
0 17 -17 33 -37z m-4106 0 c-1 -24 -2 -26 -11 -10 -5 9 -7 22 -4 27 10 17 15
11 15 -17z m1510 13 c0 -3 -4 -8 -10 -11 -5 -3 -10 -1 -10 4 0 6 5 11 10 11 6
0 10 -2 10 -4z m-568 -28 c-7 -7 -12 -8 -12 -2 0 6 3 14 7 17 3 4 9 5 12 2 2
-3 -1 -11 -7 -17z m2525 0 c-3 -8 -6 -5 -6 6 -1 11 2 17 5 13 3 -3 4 -12 1
-19z m-3408 -64 c-7 -24 -19 -44 -26 -44 -9 0 -8 12 4 48 9 26 18 54 21 62 12
37 13 -24 1 -66z m2714 21 l17 30 -6 -30 c-4 -16 -15 -50 -24 -75 -16 -41 -18
-43 -23 -20 -15 68 -16 111 -5 130 12 19 13 17 18 -22 l5 -43 18 30z m-2612
-6 c-6 -18 -11 -43 -11 -55 0 -13 -5 -24 -11 -24 -14 0 -2 87 14 105 18 19 21
10 8 -26z m4504 12 c2 -11 0 -21 -6 -21 -5 0 -9 12 -9 27 0 30 9 27 15 -6z
m-4694 -34 c-8 -8 -11 -7 -11 4 0 20 13 34 18 19 3 -7 -1 -17 -7 -23z m4080 0
c10 -17 9 -19 -6 -14 -11 5 -15 3 -13 -5 3 -7 15 -13 28 -13 13 0 25 -6 27
-13 3 -7 -1 -10 -10 -6 -8 3 -18 1 -22 -5 -3 -6 -1 -11 4 -11 6 0 11 -5 11
-11 0 -8 -5 -8 -15 1 -8 7 -12 16 -9 21 3 5 1 9 -5 9 -5 0 -13 10 -16 23 -17
57 -17 57 0 51 8 -4 20 -16 26 -27z m-3118 10 c3 -8 -1 -14 -8 -14 -7 0 -11 6
-8 14 3 7 6 13 8 13 2 0 5 -6 8 -13z m-1126 -29 c-3 -7 -5 -2 -5 12 0 14 2 19
5 13 2 -7 2 -19 0 -25z m3280 0 c-3 -7 -5 -2 -5 12 0 14 2 19 5 13 2 -7 2 -19
0 -25z m553 28 c0 -3 -4 -8 -10 -11 -5 -3 -10 -1 -10 4 0 6 5 11 10 11 6 0 10
-2 10 -4z m-3773 -63 c-3 -10 -5 -2 -5 17 0 19 2 27 5 18 2 -10 2 -26 0 -35z
m3618 28 c-3 -11 -1 -22 5 -26 5 -3 10 -12 10 -18 0 -7 -7 -3 -15 7 -8 11 -16
17 -16 13 -1 -4 -2 -11 -3 -17 0 -5 -4 -10 -8 -10 -5 0 -14 0 -20 0 -7 0 -2 7
10 16 13 9 21 22 18 29 -5 14 2 25 16 25 5 0 7 -9 3 -19z m35 -7 c0 -14 -4
-23 -9 -20 -5 3 -7 15 -4 26 7 28 13 25 13 -6z m-2580 7 c0 -10 -30 -24 -37
-17 -3 3 -2 9 2 15 8 13 35 15 35 2z m3237 3 c-3 -3 -12 -4 -19 -1 -8 3 -5 6
6 6 11 1 17 -2 13 -5z m-4226 -42 c-6 -2 -9 -8 -6 -13 4 -5 1 -17 -5 -26 -8
-14 -9 -10 -5 21 7 48 18 68 23 41 3 -10 -1 -21 -7 -23z m2837 -23 c2 -64 8
-83 23 -74 12 8 11 3 -1 -30 -5 -14 -6 -24 -1 -21 5 3 11 -4 15 -17 17 -65
-13 -64 -37 2 -20 57 -21 65 -6 55 7 -4 10 -2 8 5 -3 7 -8 12 -13 11 -15 -3
-28 29 -21 53 6 19 29 77 31 77 0 0 1 -27 2 -61z m773 52 c7 11 9 9 9 -6 -1
-11 -6 -28 -13 -37 -11 -14 -13 -12 -13 19 0 20 2 30 4 23 3 -9 6 -9 13 1z
m66 -13 c-3 -8 -6 -5 -6 6 -1 11 2 17 5 13 3 -3 4 -12 1 -19z m-539 -43 c0
-16 -2 -15 -8 5 -11 34 -11 60 0 35 5 -11 8 -29 8 -40z m249 33 c-3 -8 -6 -5
-6 6 -1 11 2 17 5 13 3 -3 4 -12 1 -19z m45 -8 c2 -16 -1 -43 -8 -59 -8 -18
-9 -32 -3 -38 6 -6 4 -10 -6 -10 -12 0 -15 6 -10 21 4 12 8 42 9 68 1 54 11
64 18 18z m768 20 c0 -5 -4 -10 -10 -10 -5 0 -10 5 -10 10 0 6 5 10 10 10 6 0
10 -4 10 -10z m411 -23 c-10 -9 -11 -8 -5 6 3 10 9 15 12 12 3 -3 0 -11 -7
-18z m-3585 -3 c-3 -9 -6 -18 -6 -20 0 -2 -4 -4 -9 -4 -7 0 -8 17 -2 38 1 1 6
2 12 2 6 0 8 -7 5 -16z m-59 -14 c-2 -11 -6 -22 -10 -26 -13 -14 5 -25 21 -12
14 10 15 10 5 -2 -7 -8 -13 -24 -13 -36 0 -13 -5 -26 -11 -30 -8 -4 -9 0 -4
15 4 12 2 21 -4 21 -14 0 -14 -47 -1 -55 6 -3 10 -12 10 -18 0 -7 -4 -6 -10 3
-5 8 -10 13 -10 10 -6 -36 -5 -78 1 -75 4 3 10 -1 13 -7 3 -7 3 1 0 17 -4 28
-4 29 6 6 7 -17 7 -28 0 -35 -17 -17 -11 -29 7 -15 15 12 14 11 -1 -13 -10
-15 -15 -32 -12 -37 4 -5 2 -12 -3 -16 -6 -3 -8 -28 -5 -56 3 -34 0 -57 -8
-67 -11 -13 -10 -15 5 -9 15 6 17 3 12 -14 -5 -15 -4 -19 4 -15 6 4 14 0 18
-10 6 -16 7 -15 20 2 7 10 13 13 13 7 0 -7 -7 -18 -15 -27 -8 -8 -20 -25 -25
-38 -8 -18 -9 -13 -4 21 4 31 3 42 -5 37 -12 -8 -15 -74 -5 -100 3 -9 11 -13
16 -10 6 4 8 -2 3 -15 -3 -11 -2 -28 4 -38 6 -12 6 -24 -1 -37 -10 -18 -12
-17 -25 14 -8 20 -11 47 -8 64 5 23 4 27 -4 16 -6 -8 -11 -10 -11 -5 0 6 -5
39 -11 75 -22 136 -8 420 26 518 7 20 25 14 22 -8z m314 -13 c-16 -16 -26 0
-10 19 9 11 15 12 17 4 2 -6 -1 -17 -7 -23z m2186 11 c-3 -8 -6 -5 -6 6 -1 11
2 17 5 13 3 -3 4 -12 1 -19z m703 12 c0 -5 -2 -10 -4 -10 -3 0 -8 5 -11 10 -3
6 -1 10 4 10 6 0 11 -4 11 -10z m-2925 -10 c3 -5 1 -10 -4 -10 -6 0 -11 5 -11
10 0 6 2 10 4 10 3 0 8 -4 11 -10z m2149 -12 c-4 -13 -7 -29 -7 -36 0 -8 -4
-9 -10 -3 -7 7 -7 19 1 36 14 31 26 33 16 3z m656 7 c7 -9 8 -15 2 -15 -5 0
-12 7 -16 15 -3 8 -4 15 -2 15 2 0 9 -7 16 -15z m-524 -16 c3 -6 2 -15 -4 -21
-6 -6 -11 -2 -15 11 -5 22 7 29 19 10z m569 -19 c2 -13 12 -31 21 -41 10 -11
14 -19 11 -19 -4 0 -9 0 -12 0 -3 0 -5 3 -4 7 0 4 -9 10 -20 14 -11 5 -24 17
-30 27 -9 17 -8 19 9 15 16 -4 19 -2 14 13 -4 11 -4 16 0 13 4 -4 9 -17 11
-29z m45 20 c0 -5 7 -10 15 -10 8 0 15 -4 15 -10 0 -16 -15 -12 -35 10 -10 11
-13 20 -7 20 7 0 12 -4 12 -10z m280 -15 c-7 -8 -20 -15 -29 -15 -12 0 -10 5
9 20 28 21 39 18 20 -5z m-4161 -29 c-9 -8 -10 -7 -5 7 3 10 7 24 7 30 1 7 3
4 6 -7 3 -10 -1 -23 -8 -30z m811 29 c0 -8 -4 -15 -10 -15 -5 0 -7 7 -4 15 4
8 8 15 10 15 2 0 4 -7 4 -15z m2286 -11 c-4 -9 -9 -15 -11 -12 -3 3 -3 13 1
22 4 9 9 15 11 12 3 -3 3 -13 -1 -22z m140 14 c4 -6 3 -8 -3 -5 -14 9 -25 -45
-12 -57 5 -6 9 -17 9 -25 -1 -10 -7 -5 -15 11 -23 41 -2 114 21 76z m1104 8
c0 -3 -4 -8 -10 -11 -5 -3 -10 -1 -10 4 0 6 5 11 10 11 6 0 10 -2 10 -4z
m-4719 -53 c1 -27 3 -57 5 -68 2 -11 5 -42 8 -70 5 -52 46 -220 70 -289 21
-59 60 -77 64 -28 1 17 -8 42 -23 62 -25 35 -26 52 -1 31 19 -16 26 5 26 78 0
104 13 240 22 235 5 -3 7 -66 6 -140 -2 -73 -1 -140 4 -147 4 -8 10 -41 13
-73 6 -55 11 -94 14 -103 0 -2 8 2 16 9 8 7 15 9 15 5 0 -4 7 -2 15 5 9 7 17
11 19 9 13 -15 36 -72 36 -90 0 -18 -2 -19 -15 -9 -12 10 -15 10 -15 -4 0 -9
-5 -16 -11 -16 -6 0 -1 -9 12 -19 13 -11 26 -16 29 -13 3 4 14 8 25 9 11 1 14
0 8 -3 -19 -8 -15 -53 7 -103 24 -53 25 -62 3 -54 -11 4 -14 3 -9 -5 4 -7 15
-12 24 -12 15 0 15 -2 2 -10 -12 -8 -13 -13 -3 -27 26 -39 64 -115 60 -120 -3
-2 -18 2 -34 11 -53 27 -71 -17 -23 -55 16 -13 30 -32 30 -41 0 -10 4 -18 9
-18 8 0 15 -23 24 -82 2 -10 14 -29 27 -43 13 -14 21 -27 18 -30 -8 -8 -97 99
-158 189 -104 156 -214 432 -295 741 -17 65 -44 250 -45 303 0 51 20 37 21
-15z m186 0 c0 -38 -2 -43 -10 -26 -8 18 -3 73 7 73 1 0 3 -21 3 -47z m3560
25 c-3 -8 -6 -5 -6 6 -1 11 2 17 5 13 3 -3 4 -12 1 -19z m-3642 -133 c-1 -79
-4 -147 -7 -150 -10 -10 -26 87 -23 140 4 75 16 155 23 155 4 0 7 -65 7 -145z
m3577 117 c3 -11 0 -19 -8 -19 -7 0 -12 9 -11 19 1 10 4 18 8 18 4 0 9 -8 11
-18z m23 8 c3 -5 1 -10 -4 -10 -6 0 -11 5 -11 10 0 6 2 10 4 10 3 0 8 -4 11
-10z m-203 -47 c5 -7 5 -13 0 -17 -10 -6 -23 27 -21 54 1 8 3 6 6 -5 3 -11 9
-25 15 -32z m128 43 c0 -3 -4 -8 -10 -11 -5 -3 -10 -1 -10 4 0 6 5 11 10 11 6
0 10 -2 10 -4z m-2479 -29 c-10 -9 -11 -8 -5 6 3 10 9 15 12 12 3 -3 0 -11 -7
-18z m395 -13 c-4 -9 -9 -14 -13 -11 -3 4 -12 2 -20 -4 -17 -15 -17 -2 1 16 7
8 16 11 20 8 3 -4 6 0 6 7 0 7 3 11 6 7 4 -3 4 -14 0 -23z m2095 -10 l-8 -29
-5 27 c-3 15 -1 25 3 22 5 -3 9 0 9 7 0 7 2 10 5 8 2 -3 1 -18 -4 -35z m73 13
c-3 -8 -11 -14 -19 -14 -21 0 -19 15 3 20 9 3 18 5 19 6 1 0 0 -5 -3 -12z
m-3441 -50 c-7 -12 -23 3 -23 22 0 28 14 35 21 9 3 -13 4 -26 2 -31z m3461 27
c3 -8 2 -12 -4 -9 -6 3 -10 10 -10 16 0 14 7 11 14 -7z m1036 12 c0 -3 -4 -8
-10 -11 -5 -3 -10 -1 -10 4 0 6 5 11 10 11 6 0 10 -2 10 -4z m-4403 -58 c-2
-13 -4 -5 -4 17 -1 22 1 32 4 23 2 -10 2 -28 0 -40z m768 42 c3 -5 1 -10 -4
-10 -6 0 -11 5 -11 10 0 6 2 10 4 10 3 0 8 -4 11 -10z m305 0 c0 -5 -2 -10 -4
-10 -3 0 -8 5 -11 10 -3 6 -1 10 4 10 6 0 11 -4 11 -10z m2299 -26 c6 4 11 4
11 -1 -1 -9 -29 -49 -31 -42 -7 26 -7 61 0 50 5 -7 14 -10 20 -7z m1381 -4 c0
-5 -2 -10 -4 -10 -3 0 -8 5 -11 10 -3 6 -1 10 4 10 6 0 11 -4 11 -10z m-4623
-22 c-3 -8 -6 -5 -6 6 -1 11 2 17 5 13 3 -3 4 -12 1 -19z m237 0 c-5 -7 -9
-37 -9 -67 0 -30 -4 -56 -10 -58 -17 -5 -13 126 5 137 18 11 25 6 14 -12z
m2806 7 c0 -8 -4 -15 -10 -15 -5 0 -7 7 -4 15 4 8 8 15 10 15 2 0 4 -7 4 -15z
m-3275 -164 c3 -159 -3 -192 -26 -133 -16 40 1 315 18 298 3 -2 6 -77 8 -165z
m5433 144 c-3 -3 -9 2 -12 12 -6 14 -5 15 5 6 7 -7 10 -15 7 -18z m-2664 0
c-4 -8 -8 -15 -10 -15 -2 0 -4 7 -4 15 0 8 4 15 10 15 5 0 7 -7 4 -15z m-1537
-11 c-3 -3 -12 -4 -19 -1 -8 3 -5 6 6 6 11 1 17 -2 13 -5z m1523 -43 c0 -34
-12 -18 -16 21 -3 24 -1 29 6 18 5 -8 10 -26 10 -39z m3095 30 c-3 -6 -14 -11
-23 -11 -15 1 -15 2 2 15 21 16 32 13 21 -4z m-2785 -159 c0 -7 4 -11 8 -8 8
4 42 -54 42 -71 0 -10 -64 81 -66 94 -1 7 -12 26 -24 43 -12 17 -19 37 -16 45
3 8 1 15 -4 15 -6 0 -10 5 -10 11 0 5 5 7 10 4 6 -3 10 2 11 12 1 19 48 -123
49 -145z m-293 116 c-3 -7 -5 -2 -5 12 0 14 2 19 5 13 2 -7 2 -19 0 -25z
m1946 12 c-18 -21 -28 -27 -18 -10 3 6 1 10 -5 10 -6 0 -8 5 -5 10 3 6 15 10
25 10 19 0 19 -1 3 -20z m-718 -8 c-3 -3 -11 0 -18 7 -9 10 -8 11 6 5 10 -3
15 -9 12 -12z m805 8 c13 -9 13 -10 0 -10 -8 0 -22 5 -30 10 -13 9 -13 10 0
10 8 0 22 -5 30 -10z m-4560 -4 c0 -3 -4 -8 -10 -11 -5 -3 -10 -1 -10 4 0 6 5
11 10 11 6 0 10 -2 10 -4z m1017 -23 c-8 -10 -16 -22 -15 -26 0 -5 -3 -11 -6
-14 -3 -4 -6 1 -6 11 0 18 20 45 34 46 5 0 2 -8 -7 -17z m3528 -3 c13 -6 15
-9 5 -9 -8 0 -22 4 -30 9 -18 12 -2 12 25 0z m129 1 c4 -5 -3 -7 -14 -4 -23 6
-26 13 -6 13 8 0 17 -4 20 -9z m-2134 -17 c0 -8 -4 -12 -10 -9 -5 3 -10 10
-10 16 0 5 5 9 10 9 6 0 10 -7 10 -16z m-1894 -8 c8 -8 14 -23 14 -33 0 -22
11 -39 27 -44 8 -3 9 -9 3 -19 -7 -12 -13 -6 -27 27 -10 24 -24 43 -30 43 -7
0 -13 9 -13 20 0 24 6 25 26 6z m2635 -9 c-6 -8 -8 -17 -4 -21 4 -4 -1 -4 -11
0 -18 7 -18 8 0 21 23 17 30 17 15 0z m-2461 -13 c0 -8 -4 -12 -10 -9 -5 3
-10 10 -10 16 0 5 5 9 10 9 6 0 10 -7 10 -16z m1737 -6 c-3 -8 -6 -5 -6 6 -1
11 2 17 5 13 3 -3 4 -12 1 -19z m679 -10 c-1 -7 -7 -22 -14 -33 -10 -18 -11
-18 -12 -2 0 11 -4 15 -12 11 -7 -4 -8 -3 -4 4 4 6 13 9 22 5 8 -3 14 -2 13 3
-2 13 0 24 5 24 2 0 3 -6 2 -12z m-3382 -14 c8 -21 8 -24 -3 -24 -5 0 -11 9
-14 20 -6 24 8 27 17 4z m352 -11 c-10 -10 -19 5 -10 18 6 11 8 11 12 0 2 -7
1 -15 -2 -18z m3124 17 c0 -5 -4 -10 -10 -10 -5 0 -10 5 -10 10 0 6 5 10 10
10 6 0 10 -4 10 -10z m-2749 -27 c-12 -20 -14 -14 -5 12 4 9 9 14 11 11 3 -2
0 -13 -6 -23z m146 7 c-3 -11 -2 -22 2 -25 4 -2 7 -14 5 -27 -1 -13 -3 -29 -3
-36 -1 -7 -5 -11 -11 -7 -5 3 -6 13 -3 22 5 12 3 14 -7 8 -10 -6 -12 -4 -7 9
4 10 7 31 7 47 0 16 5 29 11 29 6 0 9 -9 6 -20z m136 -11 c-9 -9 -12 -7 -10 9
1 14 5 18 11 12 7 -7 6 -14 -1 -21z m1710 16 c-3 -9 -8 -14 -10 -11 -3 3 -2 9
2 15 9 16 15 13 8 -4z m1421 -1 c3 -8 2 -12 -4 -9 -6 3 -10 10 -10 16 0 14 7
11 14 -7z m-714 -1 c-1 -18 -28 -44 -35 -34 -3 6 0 11 7 12 10 0 10 2 -1 6
-11 5 -11 7 0 14 17 11 29 11 29 2z m-3680 -30 c0 -21 -3 -24 -9 -14 -5 8 -7
20 -4 28 8 21 13 15 13 -14z m1020 17 c0 -5 -4 -10 -10 -10 -5 0 -10 5 -10 10
0 6 5 10 10 10 6 0 10 -4 10 -10z m-401 -62 c1 -16 -3 -28 -9 -28 -5 0 -10 21
-9 48 0 35 3 42 9 27 5 -11 9 -32 9 -47z m-364 32 c3 -5 1 -10 -4 -10 -6 0
-11 5 -11 10 0 6 2 10 4 10 3 0 8 -4 11 -10z m3375 0 c0 -5 -5 -10 -11 -10 -6
0 -8 -7 -5 -16 3 -8 2 -12 -3 -9 -14 8 -9 45 6 45 7 0 13 -4 13 -10z m-2395
-10 c-3 -5 -10 -10 -16 -10 -5 0 -9 5 -9 10 0 6 7 10 16 10 8 0 12 -4 9 -10z
m-225 -10 c0 -5 -5 -10 -11 -10 -5 0 -7 5 -4 10 3 6 8 10 11 10 2 0 4 -4 4
-10z m40 -6 c0 -2 -7 -4 -15 -4 -8 0 -15 4 -15 10 0 5 7 7 15 4 8 -4 15 -8 15
-10z m203 -39 c-3 -9 -8 -14 -10 -11 -3 3 -2 9 2 15 9 16 15 13 8 -4z m3797
11 c0 -2 -9 -6 -20 -9 -11 -3 -20 -1 -20 4 0 5 9 9 20 9 11 0 20 -2 20 -4z
m-3950 -16 c0 -5 -4 -10 -10 -10 -5 0 -10 5 -10 10 0 6 5 10 10 10 6 0 10 -4
10 -10z m1942 -23 l-7 -22 -3 23 c-2 13 -8 20 -14 16 -7 -4 -8 -2 -4 4 12 20
34 3 28 -21z m-2798 8 c3 -8 1 -15 -3 -15 -5 0 -11 7 -15 15 -3 8 -1 15 3 15
5 0 11 -7 15 -15z m382 -32 c-10 -26 -29 1 -21 28 7 20 8 21 17 5 5 -9 7 -24
4 -33z m550 1 c-4 -14 -9 -24 -12 -21 -3 2 -2 17 2 31 3 15 9 25 11 22 3 -3 2
-17 -1 -32z m49 17 c-3 -6 -11 -11 -17 -11 -6 0 -6 6 2 15 14 17 26 13 15 -4z
m2472 -3 c-3 -8 -6 -5 -6 6 -1 11 2 17 5 13 3 -3 4 -12 1 -19z m-640 -10 c-3
-8 -6 -5 -6 6 -1 11 2 17 5 13 3 -3 4 -12 1 -19z m564 -13 c2 -16 7 -35 12
-42 4 -6 3 -14 -3 -18 -5 -3 -11 1 -11 9 -3 29 -4 34 -10 41 -4 3 -4 15 -2 26
7 25 10 21 14 -16z m109 25 c0 -5 -5 -10 -11 -10 -5 0 -7 5 -4 10 3 6 8 10 11
10 2 0 4 -4 4 -10z m-44 -34 c1 -9 9 -27 17 -39 13 -21 13 -23 -3 -23 -12 0
-17 6 -15 17 2 10 -3 25 -10 36 -18 22 -19 36 -3 31 6 -2 12 -12 14 -22z
m-3451 4 c3 -5 1 -10 -4 -10 -6 0 -11 5 -11 10 0 6 2 10 4 10 3 0 8 -4 11 -10z
m3501 -7 c19 -25 17 -32 -6 -26 -24 6 -34 19 -25 33 9 14 16 12 31 -7z m59
-22 c4 -11 3 -11 -9 -2 -11 9 -15 9 -18 -1 -3 -7 -7 -1 -10 14 -4 23 -3 25 13
15 10 -6 21 -18 24 -26z m-3162 4 c4 -8 2 -17 -3 -20 -6 -4 -10 3 -10 14 0 25
6 27 13 6z m504 -7 c-3 -8 -6 -5 -6 6 -1 11 2 17 5 13 3 -3 4 -12 1 -19z
m3893 12 c-13 -8 -13 -10 2 -10 9 0 19 5 21 10 3 6 4 5 3 -2 -1 -7 -18 -14
-37 -16 -32 -2 -33 -1 -15 13 11 8 25 15 30 15 6 0 4 -5 -4 -10z m-3931 -40
c0 -10 -3 -8 -9 5 -12 27 -12 43 0 25 5 -8 9 -22 9 -30z m3646 30 c-3 -5 -14
-10 -23 -9 -14 0 -13 2 3 9 27 11 27 11 20 0z m175 0 c0 -5 -10 -15 -22 -21
-23 -12 -23 -12 -4 10 21 23 26 26 26 11z m-4657 -17 c-11 -31 -15 -34 -29
-22 -12 10 -12 14 3 25 25 18 34 17 26 -3z m5330 -10 c-7 -2 -19 -2 -25 0 -7
3 -2 5 12 5 14 0 19 -2 13 -5z m-5953 -13 c0 -5 -2 -10 -4 -10 -3 0 -8 5 -11
10 -3 6 -1 10 4 10 6 0 11 -4 11 -10z m5393 3 c-7 -2 -19 -2 -25 0 -7 3 -2 5
12 5 14 0 19 -2 13 -5z m-4220 -18 c-3 -9 -8 -14 -10 -11 -3 3 -2 9 2 15 9 16
15 13 8 -4z m4077 5 c0 -5 -5 -10 -11 -10 -5 0 -7 5 -4 10 3 6 8 10 11 10 2 0
4 -4 4 -10z m-4241 -37 c0 -35 -1 -36 -10 -14 -5 14 -7 31 -5 38 10 24 16 13
15 -24z m3164 -4 c-4 -15 -8 -17 -14 -8 -6 11 4 28 18 29 0 0 -1 -9 -4 -21z
m2027 1 c0 -6 -7 -13 -15 -16 -20 -8 -48 3 -40 16 8 13 55 13 55 0z m-4134
-27 c-10 -10 -19 5 -10 18 6 11 8 11 12 0 2 -7 1 -15 -2 -18z m3205 14 c-6 -8
-9 -16 -6 -19 3 -3 -1 -11 -10 -18 -12 -10 -15 -10 -15 0 0 7 -7 10 -15 6 -28
-11 -14 9 18 25 42 21 41 21 28 6z m-3891 -39 c0 -10 4 -18 9 -18 6 0 8 -9 6
-21 -3 -16 -1 -18 9 -10 10 8 12 5 12 -12 -1 -14 4 -21 13 -19 9 2 12 -4 8
-19 -3 -12 1 -35 9 -51 8 -16 12 -34 8 -40 -4 -7 -3 -8 4 -4 7 4 12 1 12 -10
0 -14 3 -14 16 -4 13 12 14 10 3 -13 -13 -28 -33 -38 -23 -12 4 9 1 15 -7 15
-16 0 -108 185 -108 215 1 11 3 27 5 35 5 13 6 13 14 0 6 -8 10 -23 10 -32z
m766 9 c1 -10 -5 -15 -17 -14 -13 1 -18 8 -17 23 2 17 6 20 17 14 8 -4 16 -15
17 -23z m49 5 c-3 -3 -11 0 -18 7 -9 10 -8 11 6 5 10 -3 15 -9 12 -12z m2928
11 c-7 -2 -21 -2 -30 0 -10 3 -4 5 12 5 17 0 24 -2 18 -5z m74 -9 c-3 -3 -12
-4 -19 -1 -8 3 -5 6 6 6 11 1 17 -2 13 -5z m-4163 -19 c-6 -16 -24 -21 -24 -7
0 11 11 22 21 22 5 0 6 -7 3 -15z m979 0 c4 -8 1 -17 -6 -21 -7 -4 -9 -4 -5 1
4 4 3 14 -3 22 -7 8 -8 13 -1 13 5 0 12 -7 15 -15z m66 -8 c0 -9 -2 -8 -6 1
-2 6 -10 9 -15 6 -7 -4 -8 -2 -4 5 9 13 26 5 25 -12z m-877 -19 c-9 -9 -12 -7
-12 12 0 19 3 21 12 12 9 -9 9 -15 0 -24z m5138 17 c0 -8 -7 -15 -16 -15 -14
0 -14 3 -4 15 7 8 14 15 16 15 2 0 4 -7 4 -15z m-4367 -2 c8 -13 -16 -28 -45
-29 -20 -1 -25 3 -20 14 3 10 7 12 9 5 3 -7 11 -9 19 -6 7 3 11 9 8 14 -3 5 2
9 10 9 8 0 17 -3 19 -7z m-140 -36 c-2 -4 -10 -4 -16 0 -7 4 -6 -1 2 -11 11
-13 16 -14 22 -4 6 8 9 9 9 2 0 -6 -7 -17 -15 -24 -11 -9 -15 -9 -15 -1 0 7
-4 9 -10 6 -11 -7 -13 9 -4 42 5 17 9 19 19 10 7 -7 11 -15 8 -20z m50 8 c-3
-9 -8 -14 -10 -11 -3 3 -2 9 2 15 9 16 15 13 8 -4z m-833 -9 c0 -8 -4 -17 -9
-20 -10 -7 -23 19 -14 28 11 11 23 6 23 -8z m990 6 c0 -4 -9 -8 -20 -8 -11 0
-20 4 -20 8 0 4 9 8 20 8 11 0 20 -4 20 -8z m3777 -7 c8 -22 -6 -33 -17 -15
-13 20 -12 30 0 30 6 0 13 -7 17 -15z m-5807 -7 c0 6 7 9 15 6 8 -4 15 -12 15
-20 0 -8 -6 -11 -15 -8 -18 7 -20 -18 -3 -49 10 -19 9 -20 -4 -9 -9 7 -18 23
-21 35 -2 12 -8 31 -13 42 -7 18 -6 18 9 6 11 -8 17 -9 17 -3z m1710 -9 c0 -5
-4 -9 -10 -9 -5 0 -10 7 -10 16 0 8 5 12 10 9 6 -3 10 -10 10 -16z m30 11 c0
-5 5 -10 11 -10 5 0 7 5 4 10 -3 6 -1 10 4 10 15 0 14 -13 -1 -29 -11 -11 -10
-13 4 -8 9 3 21 0 27 -7 13 -16 -20 -51 -41 -44 -7 3 -18 -1 -23 -9 -6 -8 -20
-15 -32 -16 -12 0 -21 -4 -21 -7 2 -19 -3 -30 -12 -25 -6 4 -7 12 -3 18 4 7
-1 6 -11 -2 -9 -8 -15 -20 -12 -28 3 -8 1 -11 -4 -8 -5 3 -17 -3 -27 -14 -13
-15 -19 -17 -25 -8 -5 9 -8 7 -8 -4 0 -9 -7 -22 -15 -29 -18 -15 -20 -34 -2
-25 6 4 2 -2 -9 -12 -16 -15 -19 -24 -12 -36 11 -21 -1 -45 -13 -26 -6 9 -9 0
-10 -26 l-1 -40 -14 34 c-26 59 -14 120 36 193 25 36 51 63 58 60 6 -2 12 3
12 11 0 8 8 21 18 28 15 13 16 12 4 -3 -10 -13 -10 -17 0 -20 7 -3 21 8 31 25
13 21 21 26 30 19 15 -13 52 11 42 27 -3 6 -1 11 4 11 6 0 11 -4 11 -10z m140
-20 c-6 -11 -16 -20 -22 -20 -6 0 -3 9 7 20 10 11 20 20 22 20 2 0 -1 -9 -7
-20z m4096 -2 c4 -5 0 -16 -8 -24 -19 -19 -84 -8 -68 11 8 10 6 14 -7 18 -10
2 3 4 29 5 27 0 51 -4 54 -10z m-948 -153 c-3 -3 -9 2 -12 12 -6 14 -5 15 5 6
7 -7 10 -15 7 -18z m-3941 -7 c-3 -8 -6 -5 -6 6 -1 11 2 17 5 13 3 -3 4 -12 1
-19z m3735 -58 c18 -16 28 -30 23 -30 -10 0 -65 47 -65 55 0 10 10 4 42 -25z
m39 -7 c13 -16 12 -17 -3 -4 -10 7 -18 15 -18 17 0 8 8 3 21 -13z m57 -39 c-4
-3 -12 5 -18 18 -12 22 -12 22 6 6 10 -10 15 -20 12 -24z m-33 -4 c-3 -5 -1
-11 5 -15 5 -3 10 -10 10 -16 0 -5 -9 0 -20 11 -12 12 -26 18 -32 14 -7 -4 -8
-3 -4 5 4 6 12 9 17 6 5 -4 9 -1 9 5 0 6 5 8 10 5 6 -4 8 -10 5 -15z m53 -61
c-3 -8 -7 -3 -11 10 -4 17 -3 21 5 13 5 -5 8 -16 6 -23z m29 -1 c-3 -8 -6 -5
-6 6 -1 11 2 17 5 13 3 -3 4 -12 1 -19z m128 12 c-3 -5 -1 -10 5 -10 6 0 8 -5
4 -11 -4 -7 -10 -7 -16 -1 -9 9 -3 32 8 32 3 0 2 -4 -1 -10z m-152 -46 c37
-44 30 -44 -13 1 -19 19 -30 35 -24 34 5 0 22 -16 37 -35z m894 0 c-3 -3 -12
-4 -19 -1 -8 3 -5 6 6 6 11 1 17 -2 13 -5z m70 0 c-3 -3 -12 -4 -19 -1 -8 3
-5 6 6 6 11 1 17 -2 13 -5z m96 -11 c-13 -2 -33 -2 -45 0 -13 2 -3 4 22 4 25
0 35 -2 23 -4z m82 -3 c8 -13 -25 -13 -45 0 -12 8 -9 10 12 10 15 0 30 -4 33
-10z m85 -6 c0 -2 -16 -4 -36 -4 -19 0 -33 4 -30 8 5 8 66 4 66 -4z m-4360 -8
c0 -3 -4 -8 -10 -11 -5 -3 -10 -1 -10 4 0 6 5 11 10 11 6 0 10 -2 10 -4z
m3759 0 c-12 -10 -59 -15 -59 -6 0 5 14 10 32 10 17 0 29 -2 27 -4z m-16 -41
c-3 -9 -8 -14 -10 -11 -3 3 -2 9 2 15 9 16 15 13 8 -4z m122 -25 c19 -8 19 -9
-2 -9 -12 -1 -25 4 -28 9 -7 12 2 12 30 0z m-4470 -440 c88 -41 259 -98 375
-125 41 -10 78 -20 82 -24 4 -3 -9 -40 -28 -81 -85 -182 -91 -241 -37 -338 88
-158 138 -231 197 -287 42 -40 66 -71 70 -93 4 -17 11 -32 15 -32 3 0 33 24
64 54 32 30 86 69 119 86 55 30 59 34 41 44 -11 6 -18 16 -16 23 3 7 -7 15
-22 19 -22 5 -26 12 -24 38 1 17 -2 40 -6 50 -10 24 17 46 59 47 27 1 28 2 8
7 -35 10 -31 27 8 30 32 3 69 22 43 22 -7 0 -24 5 -40 11 -26 10 -27 12 -8 19
11 5 30 6 41 3 33 -7 37 12 6 27 -25 13 -26 14 -6 17 42 8 91 -24 146 -93 31
-38 66 -78 78 -89 13 -11 34 -44 47 -74 13 -29 46 -88 73 -130 26 -42 54 -96
60 -121 7 -25 13 -110 14 -190 l1 -145 -43 -42 c-23 -23 -58 -47 -77 -53 -19
-6 -35 -15 -35 -19 0 -15 -104 -10 -121 6 -17 14 -135 26 -282 27 -37 1 -67 4
-67 8 0 3 -26 6 -57 6 -35 -1 -58 3 -61 10 -6 19 -32 14 -51 -10 -12 -14 -22
-18 -31 -13 -11 7 -9 10 6 16 14 5 10 7 -13 6 -18 -1 -33 -5 -33 -10 0 -4 -10
-5 -22 -2 -13 2 -50 7 -83 10 -33 3 -85 10 -115 16 -40 8 -55 8 -58 0 -7 -21
-30 -11 -46 22 -9 17 -29 50 -46 72 -16 22 -36 54 -44 70 -8 17 -42 57 -76 90
-34 34 -72 84 -87 115 -14 30 -38 71 -52 90 -14 19 -27 38 -27 43 -1 4 -2 11
-3 16 0 5 -12 22 -25 38 -24 28 -25 35 -22 156 1 69 5 129 9 133 12 12 8 56
-7 73 -20 24 -37 81 -24 81 5 0 8 7 4 15 -3 8 2 18 10 23 12 7 13 21 4 98 -15
136 -13 279 5 315 l16 29 57 -37 c31 -20 93 -53 137 -73z m2455 58 c8 -11 28
-34 43 -49 16 -16 40 -62 56 -106 15 -43 44 -103 64 -133 32 -49 35 -59 27
-90 -22 -86 -37 -119 -68 -145 -28 -24 -38 -26 -76 -21 -51 8 -93 -8 -102 -38
-4 -11 -19 -37 -35 -56 -38 -48 -50 -103 -48 -212 2 -51 -1 -109 -6 -128 -7
-32 -8 -33 -16 -13 -7 18 -14 21 -46 18 -21 -1 -44 -3 -51 -4 -30 -2 -99 -201
-90 -261 3 -17 2 -30 -1 -30 -16 1 -62 84 -71 127 -6 26 -15 73 -21 103 -7 34
-9 104 -5 186 10 229 -20 347 -136 523 -40 60 -68 113 -66 124 5 32 69 58 195
77 163 24 191 34 269 87 37 25 79 52 93 60 32 17 71 9 91 -19z m580 -903 c0
-10 -84 -45 -109 -45 -24 0 -24 1 -6 14 11 8 23 12 26 10 4 -2 24 3 45 10 22
8 40 15 42 15 1 1 2 -1 2 -4z m-105 -115 c-3 -5 -12 -10 -18 -10 -7 0 -6 4 3
10 19 12 23 12 15 0z m-175 -240 c0 -5 -5 -10 -11 -10 -5 0 -7 5 -4 10 3 6 8
10 11 10 2 0 4 -4 4 -10z m-1320 -254 c0 -11 -19 -15 -25 -6 -3 5 1 10 9 10 9
0 16 -2 16 -4z m3596 -63 c-7 -7 -26 7 -26 19 0 6 6 6 15 -2 9 -7 13 -15 11
-17z m-190 -42 c-3 -5 6 -12 22 -16 l27 -8 -25 -7 c-28 -9 -72 -11 -52 -3 6 2
12 9 12 14 0 6 -8 6 -19 -1 -13 -6 -22 -7 -26 0 -3 5 9 14 27 19 18 5 34 10
36 10 2 1 1 -3 -2 -8z m-3761 -23 c3 -13 9 -18 11 -12 6 14 44 6 44 -9 0 -6
-8 -34 -17 -64 -12 -37 -21 -52 -30 -48 -8 2 -11 1 -8 -4 3 -5 1 -13 -5 -16
-6 -4 -9 -1 -8 6 2 6 -3 14 -11 17 -8 2 -11 0 -7 -6 3 -6 2 -13 -4 -17 -5 -3
-10 -2 -10 4 0 7 -9 7 -26 -1 -21 -10 -27 -9 -35 3 -7 11 -9 12 -9 0 0 -10
-10 -12 -41 -8 -48 6 -60 20 -46 51 11 23 47 30 47 9 0 -7 19 -18 41 -25 37
-11 43 -10 55 6 7 10 10 24 7 32 -3 8 1 14 8 14 9 1 8 5 -5 15 -16 12 -17 17
-6 30 7 8 19 15 26 15 8 0 11 6 8 15 -4 8 -2 15 4 15 5 0 13 -10 17 -22z m-83
-100 c-6 -6 -15 -8 -19 -4 -4 4 -1 11 7 16 19 12 27 3 12 -12z m13 -178 c3 -5
1 -10 -4 -10 -6 0 -11 5 -11 10 0 6 2 10 4 10 3 0 8 -4 11 -10z m-1845 -79 c0
-18 -6 -19 -55 -17 -72 4 -81 13 -13 13 30 0 54 5 56 12 6 17 12 13 12 -8z
m47 -8 c-3 -2 -14 0 -24 7 -16 10 -16 11 0 6 9 -3 17 0 18 7 0 8 2 8 6 -1 3
-7 3 -16 0 -19z m260 10 c-3 -2 -17 -6 -31 -9 -23 -4 -25 -2 -14 9 7 8 21 12
31 9 10 -2 16 -6 14 -9z m-440 -9 c-3 -3 -12 -4 -19 -1 -8 3 -5 6 6 6 11 1 17
-2 13 -5z m433 -24 c0 -13 -30 -13 -50 0 -11 7 -7 10 18 10 17 0 32 -4 32 -10z
m4631 -263 c-10 -9 -11 -8 -5 6 3 10 9 15 12 12 3 -3 0 -11 -7 -18z"/>
<path d="M4720 6750 c8 -5 20 -10 25 -10 6 0 3 5 -5 10 -8 5 -19 10 -25 10 -5
0 -3 -5 5 -10z"/>
<path d="M4748 6653 c7 -3 16 -2 19 1 4 3 -2 6 -13 5 -11 0 -14 -3 -6 -6z"/>
<path d="M4707 6609 c7 -7 15 -10 18 -7 3 3 -2 9 -12 12 -14 6 -15 5 -6 -5z"/>
<path d="M4790 6506 c0 -2 7 -9 15 -16 13 -11 14 -10 9 4 -5 14 -24 23 -24 12z"/>
<path d="M4820 6452 c0 -5 9 -17 20 -27 16 -14 23 -16 32 -7 9 9 7 12 -10 12
-12 0 -21 5 -19 11 1 6 -4 14 -10 16 -7 3 -13 0 -13 -5z"/>
<path d="M4880 6397 c0 -3 15 -10 32 -16 18 -6 28 -7 23 -2 -12 10 -55 25 -55
18z"/>
<path d="M4900 6360 c0 -6 7 -10 15 -10 8 0 15 2 15 4 0 2 -7 6 -15 10 -8 3
-15 1 -15 -4z"/>
<path d="M5418 6198 c-44 -65 -61 -98 -55 -105 3 -3 13 10 23 29 9 18 30 52
46 76 17 24 28 45 26 48 -3 2 -21 -20 -40 -48z"/>
<path d="M5100 6129 c-35 -31 -35 -31 -3 -9 18 11 35 25 38 30 10 16 2 11 -35
-21z"/>
<path d="M5000 5690 c0 -5 5 -10 11 -10 5 0 7 5 4 10 -3 6 -8 10 -11 10 -2 0
-4 -4 -4 -10z"/>
<path d="M5831 5604 c0 -11 3 -14 6 -6 3 7 2 16 -1 19 -3 4 -6 -2 -5 -13z"/>
<path d="M3147 4916 c-4 -10 -5 -21 -2 -24 9 -9 17 6 13 25 -3 17 -4 17 -11
-1z"/>
<path d="M3171 4854 c0 -11 3 -14 6 -6 3 7 2 16 -1 19 -3 4 -6 -2 -5 -13z"/>
<path d="M3144 4811 c3 -5 -1 -14 -9 -21 -8 -7 -15 -19 -15 -26 0 -12 5 -11
25 2 28 18 34 54 9 54 -8 0 -13 -4 -10 -9z"/>
<path d="M3132 4645 c-7 -15 -8 -25 -2 -25 6 0 10 -9 10 -21 0 -11 5 -17 10
-14 12 7 14 85 2 85 -5 0 -14 -11 -20 -25z"/>
<path d="M3202 4450 c0 -14 2 -19 5 -12 2 6 2 18 0 25 -3 6 -5 1 -5 -13z"/>
<path d="M2970 4628 c0 -23 3 -29 9 -19 8 12 4 51 -5 51 -2 0 -4 -15 -4 -32z"/>
<path d="M2965 4480 c3 -5 8 -10 11 -10 2 0 4 5 4 10 0 6 -5 10 -11 10 -5 0
-7 -4 -4 -10z"/>
<path d="M3345 4070 c-3 -5 -1 -10 4 -10 6 0 11 5 11 10 0 6 -2 10 -4 10 -3 0
-8 -4 -11 -10z"/>
<path d="M3400 4060 c0 -5 5 -10 10 -10 6 0 10 5 10 10 0 6 -4 10 -10 10 -5 0
-10 -4 -10 -10z"/>
<path d="M3436 4053 c-6 -14 -5 -15 5 -6 7 7 10 15 7 18 -3 3 -9 -2 -12 -12z"/>
<path d="M3366 4028 c3 -4 12 -8 20 -8 8 0 14 4 14 8 0 4 -9 8 -19 8 -11 0
-17 -4 -15 -8z"/>
<path d="M3285 4010 c-3 -5 -2 -10 4 -10 5 0 13 5 16 10 3 6 2 10 -4 10 -5 0
-13 -4 -16 -10z"/>
<path d="M3246 3993 c-6 -14 -5 -15 5 -6 7 7 10 15 7 18 -3 3 -9 -2 -12 -12z"/>
<path d="M3769 2212 c-21 -22 -39 -42 -39 -46 0 -12 -43 -45 -59 -46 -13 0
-12 10 4 55 4 11 -13 -2 -39 -30 -25 -27 -46 -55 -46 -61 0 -6 -7 -17 -16 -25
-9 -7 -13 -21 -10 -33 3 -11 1 -25 -5 -32 -7 -9 -6 -19 3 -35 10 -17 10 -23 1
-26 -23 -8 -15 -32 9 -25 14 3 19 2 14 -6 -5 -8 5 -12 33 -12 22 0 43 5 46 10
3 6 17 7 30 4 12 -3 26 -1 30 5 3 6 12 8 18 4 18 -11 101 -12 114 -1 7 5 17 7
23 3 5 -3 13 1 16 10 4 10 10 12 18 7 6 -5 20 -8 31 -6 59 11 75 11 75 -2 0
-8 6 -11 15 -8 11 5 12 11 4 25 -11 21 0 25 20 7 10 -11 12 -9 10 7 -4 26 10
65 22 65 13 0 11 -18 -3 -22 -8 -3 -8 -10 4 -26 16 -23 30 -20 21 4 -3 8 0 14
7 14 10 0 10 3 0 15 -13 16 -6 35 14 35 12 0 14 86 3 163 -6 38 -9 40 -78 41
l-61 1 -16 -47 c-17 -53 -32 -54 -32 -3 0 31 -4 35 -37 44 -71 20 -101 14
-144 -27z m186 -262 c3 -5 -3 -10 -14 -10 -12 0 -21 5 -21 10 0 6 6 10 14 10
8 0 18 -4 21 -10z"/>
<path d="M4443 9563 c9 -2 23 -2 30 0 6 3 -1 5 -18 5 -16 0 -22 -2 -12 -5z"/>
<path d="M1810 8678 c-78 -62 -301 -261 -349 -312 l-35 -36 2707 0 c2995 0
2763 -5 2792 64 20 48 20 224 0 272 -29 69 180 64 -2567 64 l-2483 0 -65 -52z
m1026 -28 c-18 -62 -20 -58 29 -53 65 8 79 -7 71 -77 -3 -30 -10 -72 -16 -92
-10 -35 -14 -38 -47 -38 -35 0 -35 1 -29 33 4 17 10 53 13 80 6 45 5 47 -20
47 -28 0 -30 -3 -48 -97 l-12 -63 -37 0 -38 0 19 83 c10 45 24 108 30 140 l12
57 39 0 c35 0 39 -2 34 -20z m264 11 c0 -29 -14 -41 -50 -41 -34 0 -37 2 -32
25 4 22 10 25 43 25 22 0 39 -4 39 -9z m1037 -3 c-2 -7 -17 -70 -32 -140 l-28
-128 -37 0 -38 0 19 83 c10 45 24 108 30 140 l12 57 39 0 c28 0 39 -4 35 -12z
m732 -70 c-10 -46 -24 -109 -31 -140 l-12 -58 -80 0 c-96 0 -116 13 -116 73 0
86 51 141 126 135 43 -3 43 -3 49 34 6 36 9 38 45 38 l38 0 -19 -82z m778 70
c-2 -7 -17 -70 -32 -140 l-28 -128 -37 0 -38 0 19 83 c10 45 24 108 30 140
l12 57 39 0 c28 0 39 -4 35 -12z m123 3 c0 -29 -14 -41 -50 -41 -34 0 -37 2
-32 25 4 22 10 25 43 25 22 0 39 -4 39 -9z m-3090 -31 c30 -30 25 -68 -14
-105 l-34 -32 30 -51 30 -52 -46 0 c-45 0 -46 1 -71 50 -14 28 -31 50 -38 50
-8 0 -17 -20 -23 -47 -9 -46 -10 -48 -46 -51 -21 -2 -38 0 -38 5 0 4 12 63 27
131 l28 122 87 0 c75 0 91 -3 108 -20z m1122 -5 c-3 -18 -11 -25 -26 -25 -19
0 -25 -10 -39 -72 -21 -90 -21 -88 2 -88 14 0 17 -6 13 -25 -4 -24 -7 -25 -87
-25 l-82 0 5 25 c3 18 11 25 27 25 19 0 25 9 39 65 20 82 20 95 -3 95 -14 0
-17 6 -13 25 4 24 7 25 87 25 l82 0 -5 -25z m-492 -40 c14 -16 9 -89 -10 -157
-10 -35 -14 -38 -47 -38 -35 0 -35 1 -29 33 4 17 10 53 13 80 6 45 5 47 -20
47 -28 0 -30 -3 -48 -97 l-12 -63 -37 0 -38 0 19 88 c27 120 23 114 69 111 21
-2 42 0 46 4 13 13 81 7 94 -8z m249 -11 c37 -47 21 -119 -35 -163 -38 -30
-119 -29 -151 1 -28 26 -30 74 -7 124 21 45 56 63 121 64 44 0 55 -4 72 -26z
m434 20 c9 -3 12 -14 9 -29 -4 -23 -7 -24 -63 -18 -71 7 -81 -10 -16 -28 23
-6 48 -16 55 -21 20 -17 14 -57 -13 -83 -21 -22 -33 -25 -92 -25 -81 0 -93 6
-86 43 6 31 6 31 57 13 38 -13 76 -11 76 4 0 5 -15 11 -32 15 -53 11 -78 32
-78 65 0 45 40 70 111 70 31 0 64 -2 72 -6z m341 -13 c17 -18 17 -24 0 -105
l-18 -86 -87 0 c-97 0 -112 8 -107 61 4 41 42 70 102 76 25 3 46 10 46 14 0
10 -16 12 -72 9 -38 -2 -43 4 -32 34 10 25 145 23 168 -3z m256 4 c14 -16 9
-89 -10 -157 -10 -35 -14 -38 -47 -38 -35 0 -35 1 -29 33 4 17 10 53 13 80 6
45 5 47 -20 47 -28 0 -30 -3 -48 -97 l-12 -63 -37 0 -38 0 19 88 c27 120 23
114 69 111 21 -2 42 0 46 4 13 13 81 7 94 -8z m629 -11 c37 -47 21 -119 -35
-163 -38 -30 -119 -29 -151 1 -28 26 -30 74 -7 124 21 45 56 63 121 64 44 0
55 -4 72 -26z m261 11 c14 -16 9 -89 -10 -157 -10 -35 -14 -38 -47 -38 -35 0
-35 1 -29 33 4 17 10 53 13 80 6 45 5 47 -20 47 -28 0 -30 -3 -48 -97 l-12
-63 -37 0 -38 0 19 88 c27 120 23 114 69 111 21 -2 42 0 46 4 13 13 81 7 94
-8z m500 0 c14 -16 9 -89 -10 -157 -10 -35 -14 -38 -47 -38 -35 0 -35 1 -29
33 4 17 10 53 13 80 6 45 5 47 -20 47 -28 0 -30 -3 -48 -97 l-12 -63 -37 0
-38 0 19 88 c27 120 23 114 69 111 21 -2 42 0 46 4 13 13 81 7 94 -8z m243 -2
c15 -18 20 -39 18 -80 -1 -22 -5 -23 -76 -23 -75 0 -88 -7 -60 -30 14 -12 56
-10 101 5 18 6 20 3 16 -23 -5 -35 -21 -42 -100 -42 -43 0 -58 5 -77 25 -44
44 -26 137 33 169 39 22 125 21 145 -1z m-3146 -15 c-4 -12 -14 -57 -23 -100
l-17 -78 -38 0 c-26 0 -37 4 -35 13 3 6 12 46 21 87 9 41 18 81 21 88 2 7 19
12 40 12 33 0 36 -2 31 -22z m2670 0 c-4 -12 -14 -57 -23 -100 l-17 -78 -38 0
c-26 0 -37 4 -35 13 3 6 12 46 21 87 9 41 18 81 21 88 2 7 19 12 40 12 33 0
36 -2 31 -22z m-788 -140 c-5 -18 -9 -34 -9 -35 0 -2 -16 -3 -35 -3 -28 0 -35
4 -35 19 0 40 11 51 50 51 l39 0 -10 -32z"/>
<path d="M4727 8535 c-18 -17 -31 -70 -22 -85 7 -12 52 -14 58 -2 3 4 8 28 12
55 7 43 6 47 -13 47 -11 0 -27 -7 -35 -15z"/>
<path d="M2546 8574 c-4 -15 -5 -28 -3 -31 8 -7 56 9 68 23 9 11 6 16 -16 24
-38 14 -42 13 -49 -16z"/>
<path d="M3434 8514 c-19 -45 -10 -74 21 -74 29 0 45 26 45 74 0 32 -3 36 -26
36 -19 0 -28 -8 -40 -36z"/>
<path d="M4207 8473 c-17 -17 -6 -34 20 -31 36 4 45 38 10 38 -13 0 -27 -3
-30 -7z"/>
<path d="M5094 8514 c-19 -45 -10 -74 21 -74 29 0 45 26 45 74 0 32 -3 36 -26
36 -19 0 -28 -8 -40 -36z"/>
<path d="M6110 8535 c-11 -13 -7 -15 24 -15 25 0 36 4 36 15 0 9 -9 15 -24 15
-13 0 -29 -7 -36 -15z"/>
<path d="M5872 7570 c0 -14 2 -19 5 -12 2 6 2 18 0 25 -3 6 -5 1 -5 -13z"/>
<path d="M7495 7489 c-9 -17 -21 -73 -26 -125 -9 -89 -14 -102 -84 -241 -83
-164 -100 -183 -30 -34 43 92 44 95 15 64 -16 -18 -33 -33 -36 -33 -4 0 -30
-17 -58 -38 -28 -21 -62 -45 -76 -54 -14 -9 -34 -24 -45 -34 -42 -39 -104 -84
-114 -84 -6 0 -11 -7 -11 -17 0 -9 -3 -14 -6 -10 -4 3 -13 -1 -21 -9 -9 -8
-22 -13 -29 -10 -8 3 -14 -1 -14 -10 0 -10 -6 -14 -15 -10 -16 6 -48 -31 -39
-46 3 -4 0 -8 -5 -8 -6 0 -11 5 -11 11 0 20 -28 -10 -35 -38 -6 -24 -7 -25
-20 -7 -13 17 -14 16 -16 -21 -1 -39 -1 -40 -12 -12 -6 15 -17 27 -25 27 -8 0
-12 -6 -9 -14 4 -10 1 -13 -9 -9 -8 3 -14 -1 -14 -11 0 -9 -4 -16 -10 -16 -5
0 -10 5 -10 12 0 6 -3 9 -6 5 -3 -3 15 -34 42 -69 68 -90 72 -98 25 -51 -50
52 -53 46 -5 -12 29 -36 32 -45 20 -52 -12 -6 7 -32 89 -122 57 -62 121 -137
141 -167 21 -30 40 -52 42 -49 3 3 0 11 -6 17 -14 14 -16 32 -2 23 12 -7 2 21
-18 53 -8 12 -13 25 -10 27 5 5 58 -44 76 -71 7 -10 5 -5 -3 13 -15 32 -17 83
-3 83 4 0 8 15 8 34 0 37 12 46 60 46 38 0 47 16 15 24 -15 4 -23 11 -19 17 3
6 15 8 27 5 11 -3 29 0 39 5 16 9 94 22 181 31 9 1 17 6 17 10 0 4 7 4 17 1 9
-4 14 -2 10 3 -3 5 6 11 20 12 31 2 52 18 63 47 5 12 18 21 31 22 49 3 -101
-113 -191 -148 -25 -10 -38 -18 -29 -19 35 -1 164 75 220 129 33 31 59 60 59
66 0 5 14 25 31 43 17 19 32 44 32 58 0 13 4 24 9 24 6 0 5 7 -3 16 -12 14
-14 14 -26 -2 -7 -9 -10 -21 -7 -25 3 -5 2 -9 -3 -10 -54 -5 -61 -4 -51 8 6 8
8 16 5 20 -4 3 -2 12 5 20 9 11 7 12 -8 7 -15 -4 -13 -1 6 16 14 12 19 19 13
15 -9 -4 -13 2 -13 17 0 13 -2 37 -4 53 -3 17 -7 42 -9 58 -2 15 0 27 5 27 5
0 6 5 3 10 -3 6 -1 10 4 10 7 0 7 7 -1 20 -11 17 -10 22 2 30 13 9 8 14 -12
11 -8 -1 -4 46 5 55 3 3 3 11 1 18 -3 7 5 18 18 24 20 10 19 10 -12 6 -33 -5
-34 -4 -16 10 17 14 17 16 1 32 -9 9 -12 20 -7 23 5 3 9 14 9 23 0 12 -4 15
-12 8 -20 -17 -26 2 -8 23 10 11 12 17 6 13 -8 -4 -13 -2 -13 6 -1 8 -7 5 -17
-7 -15 -19 -15 -19 -9 7 3 15 2 30 -4 33 -5 3 -10 12 -10 18 0 7 4 6 10 -3 8
-12 10 -12 16 3 3 9 11 17 18 17 6 0 18 4 26 10 12 7 11 12 -7 27 -26 23 -17
44 30 75 l32 20 -29 -7 c-16 -3 -37 -16 -48 -28 -11 -12 -16 -15 -12 -7 4 8
14 23 22 33 17 19 3 24 -15 6 -9 -9 -10 -7 -6 10 5 19 1 21 -36 21 -35 0 -43
-4 -56 -31z m-194 -546 c-12 -20 -14 -14 -5 12 4 9 9 14 11 11 3 -2 0 -13 -6
-23z m364 -243 c3 -5 2 -10 -4 -10 -5 0 -13 5 -16 10 -3 6 -2 10 4 10 5 0 13
-4 16 -10z m-35 -64 c0 -3 -4 -8 -10 -11 -5 -3 -10 -1 -10 4 0 6 5 11 10 11 6
0 10 -2 10 -4z m-778 -135 c7 -10 17 -18 23 -17 11 1 190 -233 183 -239 -2 -3
-29 29 -59 71 -101 141 -121 165 -126 160 -3 -2 7 -22 22 -43 l28 -38 -29 32
c-49 54 -76 93 -65 93 5 0 16 -8 23 -19z"/>
<path d="M5340 7246 c0 -2 7 -7 16 -10 8 -3 12 -2 9 4 -6 10 -25 14 -25 6z"/>
<path d="M7695 7210 c-3 -5 -2 -10 4 -10 5 0 13 5 16 10 3 6 2 10 -4 10 -5 0
-13 -4 -16 -10z"/>
<path d="M7700 7180 c0 -5 5 -10 11 -10 5 0 7 5 4 10 -3 6 -8 10 -11 10 -2 0
-4 -4 -4 -10z"/>
<path d="M7728 7153 c7 -3 16 -2 19 1 4 3 -2 6 -13 5 -11 0 -14 -3 -6 -6z"/>
<path d="M6000 7117 c0 -22 2 -22 137 -22 131 0 137 1 121 18 -10 9 -21 16
-25 16 -5 -1 -10 0 -13 1 -14 5 -130 5 -130 -1 0 -7 -55 -3 -77 6 -8 3 -13 -4
-13 -18z"/>
<path d="M7738 7133 c-10 -2 -18 -9 -18 -14 0 -6 8 -5 20 1 11 6 20 13 20 15
0 3 -1 4 -2 4 -2 -1 -11 -3 -20 -6z"/>
<path d="M3488 6983 c-16 -17 -70 -153 -61 -153 2 0 33 17 69 37 l65 38 -3 45
c-3 40 -6 45 -29 48 -15 2 -32 -4 -41 -15z"/>
<path d="M7720 6991 c0 -5 5 -13 10 -16 6 -3 10 -2 10 4 0 5 -4 13 -10 16 -5
3 -10 2 -10 -4z"/>
<path d="M7711 6951 c-8 -6 -9 -11 -3 -15 6 -3 14 -1 17 5 9 14 2 20 -14 10z"/>
<path d="M7705 6886 c11 -8 27 -16 35 -16 20 0 1 16 -30 25 -24 7 -24 7 -5 -9z"/>
<path d="M7710 6848 c0 -19 12 -33 37 -47 34 -17 36 -13 8 16 -14 15 -25 31
-25 35 0 5 -4 8 -10 8 -5 0 -10 -6 -10 -12z"/>
<path d="M7651 6751 c-8 -5 -9 -11 -3 -15 5 -3 12 1 16 9 6 17 6 18 -13 6z"/>
<path d="M8921 6488 c-22 -48 -41 -92 -41 -98 0 -6 -4 -9 -9 -6 -5 3 -8 -2 -7
-12 0 -9 -4 -16 -10 -15 -7 1 -11 -13 -11 -35 -1 -58 -2 -63 -17 -60 -9 2 -27
-20 -45 -56 -36 -67 -39 -81 -11 -47 11 13 20 19 20 14 0 -12 -31 -41 -45 -43
-5 -1 -19 -18 -30 -38 -11 -20 -33 -52 -50 -70 -43 -49 -72 -104 -45 -87 6 3
10 2 10 -4 0 -16 -18 -22 -23 -9 -4 10 -8 9 -16 -2 -7 -10 -6 -17 2 -22 10 -7
6 -10 -13 -10 -3 0 -14 -9 -25 -21 -11 -11 -14 -17 -6 -12 9 5 12 3 9 -6 -3
-8 -11 -13 -17 -11 -6 1 -11 -11 -11 -27 0 -17 -14 -46 -35 -74 -19 -25 -35
-52 -35 -60 0 -16 -19 -35 -35 -36 -5 0 -12 -8 -14 -18 -5 -27 -41 -74 -52
-68 -5 4 -9 -1 -9 -9 0 -9 -4 -16 -9 -16 -5 0 -17 -3 -27 -7 -13 -5 -8 7 17
41 19 27 40 51 47 53 6 3 12 11 12 19 0 8 4 14 10 14 17 0 43 61 31 73 -8 8
-11 5 -11 -11 0 -30 -35 -48 -49 -25 -8 14 -9 10 -4 -16 4 -25 3 -32 -6 -27
-6 4 -11 4 -10 -1 1 -4 1 -15 0 -23 -1 -13 -2 -13 -11 0 -8 12 -10 12 -10 -5
0 -11 -9 -35 -21 -54 -11 -18 -18 -35 -15 -38 2 -3 -4 -30 -15 -60 -10 -31
-19 -82 -19 -113 0 -43 -5 -64 -20 -81 -10 -13 -19 -20 -20 -15 0 14 -60 -65
-60 -80 0 -8 -5 -14 -11 -14 -13 0 -2 39 17 58 16 16 18 32 4 32 -5 0 -10 -6
-10 -13 0 -8 -11 -19 -25 -25 -14 -6 -25 -16 -25 -21 0 -12 -101 -111 -113
-111 -5 0 -3 7 4 17 12 14 12 16 -1 11 -8 -2 -15 -14 -16 -25 -1 -12 -4 -28
-7 -37 -4 -9 3 -34 14 -57 22 -41 20 -54 -9 -54 -11 0 -18 -10 -20 -27 -4 -38
23 -37 42 1 8 15 39 43 68 62 29 18 59 41 66 51 7 10 20 18 27 18 8 0 21 14
30 30 9 17 20 30 25 30 5 0 12 11 16 25 3 14 10 25 16 25 5 0 6 5 3 10 -3 6
-1 10 4 10 6 0 11 7 11 16 0 30 -58 -16 -68 -55 -7 -25 -10 -29 -11 -13 -1 26
-4 27 -35 6 -16 -10 -26 -12 -31 -5 -8 14 2 31 18 31 16 1 60 40 82 74 10 14
31 36 46 47 25 18 28 18 22 3 -4 -12 -3 -15 5 -10 13 8 11 -42 -3 -65 -7 -12
-6 -12 7 -1 9 8 18 23 20 35 2 12 9 21 16 20 6 -2 12 2 12 8 0 13 68 92 84 98
6 2 15 9 21 15 19 19 89 170 90 191 0 25 34 77 46 69 5 -3 10 0 10 5 1 6 3 16
4 21 1 6 3 14 4 19 0 5 11 11 24 15 18 5 20 8 7 16 -13 8 -12 10 3 10 34 0
268 509 328 713 21 72 22 79 7 109 l-16 33 -41 -87z m-198 -435 c-8 -21 -20
-41 -27 -45 -8 -6 -7 -8 2 -8 8 0 5 -10 -10 -30 -16 -22 -24 -27 -30 -18 -10
17 -10 30 1 24 5 -3 14 6 20 22 11 25 22 45 44 80 16 24 16 12 0 -25z m63 -55
c-3 -7 -9 -21 -12 -30 -6 -16 -24 -26 -24 -13 0 13 25 55 32 55 6 0 7 -6 4
-12z m-44 -90 c-7 -7 -10 -5 -7 8 5 29 6 30 12 16 3 -8 1 -18 -5 -24z m-92 1
c-7 -11 -14 -18 -17 -15 -8 8 5 36 17 36 7 0 7 -6 0 -21z m45 -66 c-9 -15 -13
-19 -10 -8 4 11 10 29 13 40 3 11 7 14 9 8 3 -7 -3 -24 -12 -40z m-80 16 c-5
-15 -4 -19 4 -15 18 11 13 -1 -19 -46 -33 -47 -54 -128 -30 -113 8 5 4 -6 -9
-23 -12 -18 -19 -32 -15 -32 4 0 0 -8 -10 -19 -9 -10 -14 -26 -10 -37 5 -17 4
-17 -7 1 -14 20 -16 25 -18 47 0 7 -12 1 -26 -14 -18 -20 -25 -38 -24 -65 0
-21 3 -32 6 -25 8 20 22 14 16 -8 -8 -32 -38 -20 -36 13 2 33 -13 34 -45 5
-22 -20 -22 -18 6 23 17 25 30 55 28 65 -2 10 -1 13 1 7 3 -7 6 -13 9 -13 9 0
44 35 44 45 0 6 14 25 30 44 17 18 30 38 29 44 -3 26 2 35 21 40 11 3 20 13
20 23 0 14 -3 15 -12 6 -7 -7 -17 -12 -22 -12 -6 0 -3 7 7 15 11 7 26 11 35 8
11 -5 14 -2 9 10 -7 20 1 47 15 47 5 0 6 -10 3 -21z m46 -72 c-10 -9 -11 -8
-5 6 3 10 9 15 12 12 3 -3 0 -11 -7 -18z m-221 -305 c0 -5 -6 -17 -14 -27 -13
-18 -14 -18 -9 8 5 24 23 39 23 19z m-57 -46 c23 -18 22 -21 -15 -43 -41 -24
-76 -34 -83 -23 -6 10 55 79 70 79 6 0 18 -6 28 -13z m-261 -278 c-7 -7 -12
-8 -12 -2 0 14 12 26 19 19 2 -3 -1 -11 -7 -17z m-42 -88 c-6 -11 -13 -20 -16
-20 -2 0 0 9 6 20 6 11 13 20 16 20 2 0 0 -9 -6 -20z"/>
<path d="M8530 5685 c0 -8 2 -15 4 -15 2 0 6 7 10 15 3 8 1 15 -4 15 -6 0 -10
-7 -10 -15z"/>
<path d="M8512 5630 c0 -14 2 -19 5 -12 2 6 2 18 0 25 -3 6 -5 1 -5 -13z"/>
<path d="M2087 6296 c-52 -67 -245 -396 -233 -396 3 0 26 27 52 60 26 33 65
71 88 84 22 13 48 33 57 43 19 21 48 46 83 68 21 14 24 20 15 42 -7 19 -6 32
6 49 21 32 19 61 -4 74 -30 15 -36 13 -64 -24z"/>
<path d="M7805 6197 c0 -50 -7 -102 -17 -132 -9 -28 -20 -66 -23 -85 -3 -19
-11 -39 -17 -45 -8 -7 -9 -4 -4 10 6 16 5 17 -5 8 -9 -9 -9 -16 -1 -25 7 -9 6
-34 -7 -88 -9 -41 -20 -70 -23 -64 -4 6 -1 37 7 70 13 57 12 86 -2 48 -10 -30
-103 -164 -112 -164 -12 0 -21 -39 -11 -45 5 -3 17 6 26 20 9 13 20 22 25 19
5 -3 9 5 9 18 0 16 3 19 9 10 6 -11 12 -10 26 5 18 17 18 17 11 -12 -4 -16 -8
-34 -9 -40 -1 -5 -19 -32 -40 -60 -31 -39 -38 -56 -35 -82 3 -22 0 -33 -9 -33
-7 0 -12 -3 -11 -7 1 -5 -2 -28 -6 -52 -6 -30 -14 -45 -27 -48 -14 -4 -17 -11
-13 -33 6 -27 -10 -43 -45 -44 -8 -1 -16 -8 -18 -16 -4 -13 -3 -13 6 0 6 8 11
10 11 5 0 -16 74 -12 87 5 6 8 8 19 4 23 -5 5 -4 24 2 44 9 29 12 32 18 17 6
-16 8 -14 14 11 4 17 14 38 22 47 9 9 12 25 8 36 -3 11 -1 23 6 27 6 4 18 21
26 39 10 21 13 24 9 8 -4 -19 -2 -21 10 -11 8 7 13 19 12 28 -4 19 22 52 34
45 5 -3 6 6 2 20 -4 17 -2 26 6 26 6 0 8 5 5 10 -3 6 -1 10 5 10 8 0 8 6 0 20
-8 16 -8 20 2 18 8 -2 13 6 12 20 0 12 2 22 6 22 10 0 39 143 49 245 8 81 0
202 -15 226 -14 23 -19 3 -19 -74z m-120 -407 c-4 -12 -9 -19 -12 -17 -3 3 -2
15 2 27 4 12 9 19 12 17 3 -3 2 -15 -2 -27z"/>
<path d="M8774 6248 c-4 -7 -14 -24 -22 -38 -14 -24 -13 -24 3 -5 20 24 37 55
31 55 -3 0 -8 -6 -12 -12z"/>
<path d="M6110 5990 c-9 -6 -10 -10 -3 -10 6 0 15 5 18 10 8 12 4 12 -15 0z"/>
<path d="M6085 5960 c-8 -13 3 -30 18 -30 7 0 6 4 -3 10 -14 9 -7 14 13 11 5
-1 6 3 2 9 -8 13 -22 13 -30 0z"/>
<path d="M8553 5913 c-4 -10 -14 -24 -22 -31 -14 -11 -13 -12 5 -3 12 6 24 20
27 31 6 25 -1 27 -10 3z"/>
<path d="M7640 5910 c0 -15 -33 -50 -42 -44 -5 3 -8 2 -7 -3 4 -24 -3 -43 -16
-43 -14 0 -19 -12 -16 -32 0 -5 -3 -7 -7 -5 -5 1 -29 -20 -54 -48 -31 -33 -45
-57 -43 -72 1 -12 -2 -20 -6 -17 -5 3 -9 2 -10 -3 0 -4 -2 -16 -4 -25 -2 -10
1 -18 6 -18 6 0 7 -4 4 -10 -3 -5 -1 -10 5 -10 6 0 8 -5 5 -10 -4 -6 -11 -8
-16 -5 -5 3 -6 -1 -3 -10 8 -21 34 -1 34 26 0 12 7 19 20 19 14 0 20 7 20 23
0 24 43 122 64 147 26 30 87 150 77 150 -6 0 -11 -4 -11 -10z"/>
<path d="M3020 5840 c0 -5 4 -10 9 -10 6 0 13 5 16 10 3 6 -1 10 -9 10 -9 0
-16 -4 -16 -10z"/>
<path d="M8466 5805 c-3 -8 -1 -17 3 -20 5 -3 11 2 15 10 3 8 1 17 -3 20 -5 3
-11 -2 -15 -10z"/>
<path d="M7527 5629 c-10 -30 -20 -62 -24 -71 -9 -28 31 -22 47 6 9 18 10 38
4 72 l-9 47 -18 -54z"/>
<path d="M7281 5639 c-6 -18 -9 -34 -7 -36 2 -2 9 10 15 28 6 18 9 34 7 36 -2
2 -9 -10 -15 -28z"/>
<path d="M7403 5643 c-15 -16 -38 -35 -51 -42 -12 -7 -20 -17 -16 -22 4 -6 14
-3 27 8 13 11 18 12 11 3 -6 -8 -9 -21 -8 -27 1 -7 2 -19 3 -25 1 -9 4 -9 11
2 5 9 5 19 -1 26 -5 7 -6 14 -2 16 15 6 66 78 60 85 -4 3 -19 -8 -34 -24z"/>
<path d="M7397 5588 c-2 -7 0 -23 4 -35 5 -14 5 -23 -1 -23 -6 0 -10 -5 -10
-12 0 -9 3 -9 12 0 9 9 14 7 23 -5 11 -14 12 -14 18 1 4 10 1 16 -9 16 -9 0
-12 5 -8 12 5 7 3 8 -6 3 -10 -6 -12 -4 -7 8 4 10 10 24 13 32 4 9 0 15 -9 15
-8 0 -17 -6 -20 -12z"/>
<path d="M6185 5581 c-56 -20 -80 -37 -77 -54 2 -11 10 -16 17 -13 18 6 25
-14 13 -37 -5 -10 -8 -21 -5 -23 2 -2 12 14 22 36 10 22 22 40 27 40 8 0 58
48 58 56 0 6 -33 3 -55 -5z"/>
<path d="M8257 5559 c-15 -11 -24 -26 -21 -32 3 -7 -1 -4 -9 5 -12 16 -16 14
-45 -20 -18 -20 -32 -47 -32 -59 0 -13 -4 -23 -9 -23 -5 0 -7 10 -4 23 5 18
-2 14 -31 -18 -21 -22 -35 -34 -31 -27 3 6 3 12 0 12 -10 0 -42 -34 -50 -55
-4 -13 -9 -15 -12 -7 -3 6 -9 12 -14 12 -6 0 -7 -5 -4 -11 10 -16 -23 -47 -77
-73 -30 -15 -51 -19 -57 -13 -6 6 -25 -1 -52 -21 -30 -22 -47 -29 -58 -23 -16
9 -71 -21 -71 -39 0 -19 35 -21 50 -2 9 10 27 22 41 25 14 4 38 18 53 32 31
29 57 24 30 -6 -9 -10 -21 -16 -27 -12 -6 3 -7 1 -3 -5 4 -6 -2 -17 -14 -24
-11 -7 -20 -19 -20 -26 0 -8 -8 -10 -24 -6 -18 4 -27 1 -36 -15 -6 -12 -15
-19 -20 -16 -13 8 -49 -35 -43 -52 5 -12 8 -12 23 2 9 8 22 15 28 15 6 0 17 8
24 18 7 9 26 23 42 30 25 11 28 11 22 -3 -4 -11 -2 -14 6 -9 8 5 9 1 5 -12 -6
-19 -6 -19 6 0 21 34 47 57 57 51 6 -4 15 -3 21 1 8 5 8 9 -1 14 -8 5 2 20 29
47 23 22 41 45 41 51 0 7 6 12 14 12 7 0 21 10 30 23 16 22 16 22 6 0 -13 -27
-13 -36 0 -28 6 3 10 1 10 -5 0 -6 5 -8 10 -5 6 3 10 11 10 16 0 6 -4 7 -10 4
-5 -3 -10 -1 -10 5 0 7 7 10 15 6 10 -4 21 7 35 35 12 22 25 37 29 35 5 -3 21
5 37 19 15 13 30 24 33 23 19 -2 24 4 11 12 -13 8 -12 11 6 16 11 3 34 27 50
54 16 26 32 46 36 43 5 -2 8 3 8 11 0 20 1 20 -33 -5z m-66 -82 c-10 -9 -11
-8 -5 6 3 10 9 15 12 12 3 -3 0 -11 -7 -18z m-285 -245 c-17 -16 -18 -16 -5 5
7 12 15 20 18 17 3 -2 -3 -12 -13 -22z m-36 -7 c-6 -8 -8 -20 -4 -27 4 -7 4
-10 -1 -6 -4 4 -14 0 -22 -10 -12 -15 -13 -14 -2 8 13 28 29 50 36 50 3 0 0
-7 -7 -15z m-140 -20 c-7 -8 -17 -15 -23 -15 -5 0 -2 9 8 20 21 23 35 19 15
-5z"/>
<path d="M7316 5561 c-4 -6 -16 -11 -26 -11 -14 0 -23 -12 -31 -40 -14 -47
-43 -76 -84 -85 l-30 -7 31 23 c42 32 59 51 67 72 8 22 -2 21 -33 -4 -14 -11
-18 -17 -10 -13 8 4 4 -5 -9 -19 -17 -18 -31 -26 -45 -22 -12 3 -15 2 -9 -1
14 -6 -8 -48 -37 -72 -13 -10 -13 -11 3 -6 20 7 23 -6 5 -24 -8 -8 -8 -12 -1
-12 6 0 16 6 22 14 6 8 23 16 36 19 20 3 25 0 25 -17 0 -11 4 -16 8 -11 4 6
13 11 20 13 10 2 10 -2 0 -18 -7 -11 -17 -20 -22 -20 -6 0 -1 -7 10 -15 10 -8
15 -15 9 -15 -5 0 -4 -4 4 -9 10 -7 19 -4 28 7 11 15 14 15 23 2 7 -11 10 -3
10 33 0 51 -16 65 -23 20 -3 -18 -4 -12 -5 17 -1 32 1 41 8 30 6 -9 10 -10 10
-3 0 6 -5 15 -10 18 -11 7 -5 62 12 107 10 26 36 33 54 15 11 -11 -16 -36 -34
-31 -15 5 -15 4 0 -6 14 -9 22 -7 37 7 16 16 16 22 6 47 -7 18 -15 24 -19 17z
m-152 -166 c-7 -16 -24 -21 -24 -6 0 8 7 13 27 20 1 1 0 -6 -3 -14z"/>
<path d="M6320 5541 c-39 -16 -49 -27 -78 -82 -39 -77 -95 -135 -148 -154 -23
-9 -31 -14 -19 -15 12 0 38 9 59 20 22 10 44 17 50 13 6 -3 8 -3 4 2 -12 13
120 152 169 180 53 29 64 30 104 10 27 -14 30 -14 35 0 6 14 10 13 29 -5 16
-15 30 -20 45 -15 17 5 19 10 9 21 -6 8 -17 14 -23 14 -6 0 -4 -4 4 -10 8 -5
11 -12 7 -17 -5 -4 -17 3 -27 17 -11 14 -20 22 -20 18 0 -4 -16 0 -35 8 -46
19 -110 17 -165 -5z"/>
<path d="M6398 5513 c7 -3 16 -2 19 1 4 3 -2 6 -13 5 -11 0 -14 -3 -6 -6z"/>
<path d="M7454 5486 c-7 -31 4 -55 17 -35 12 19 11 59 -1 59 -5 0 -12 -11 -16
-24z"/>
<path d="M6097 5480 c-3 -11 -1 -20 4 -20 5 0 9 9 9 20 0 11 -2 20 -4 20 -2 0
-6 -9 -9 -20z"/>
<path d="M7397 5463 c-5 -26 -4 -26 9 -8 16 22 18 35 5 35 -5 0 -11 -12 -14
-27z"/>
<path d="M7540 5455 c0 -8 5 -15 10 -15 6 0 10 7 10 15 0 8 -4 15 -10 15 -5 0
-10 -7 -10 -15z"/>
<path d="M7271 5424 c0 -11 3 -14 6 -6 3 7 2 16 -1 19 -3 4 -6 -2 -5 -13z"/>
<path d="M6084 5415 c-10 -8 -14 -15 -8 -15 6 0 17 7 24 15 16 19 9 19 -16 0z"/>
<path d="M7410 5420 c0 -5 5 -10 11 -10 5 0 7 5 4 10 -3 6 -8 10 -11 10 -2 0
-4 -4 -4 -10z"/>
<path d="M6903 5385 c0 -22 2 -30 4 -17 2 12 2 30 0 40 -3 9 -5 -1 -4 -23z"/>
<path d="M5964 5399 c-3 -6 -2 -15 4 -21 6 -6 12 -6 17 3 6 8 4 10 -5 4 -10
-6 -12 -4 -7 8 7 19 2 23 -9 6z"/>
<path d="M5970 5356 c0 -2 7 -7 16 -10 8 -3 12 -2 9 4 -6 10 -25 14 -25 6z"/>
<path d="M7443 5323 c-15 -5 -18 -33 -4 -33 5 0 11 9 14 20 3 11 4 20 4 19 -1
0 -8 -3 -14 -6z"/>
<path d="M1705 5311 c-3 -5 -1 -12 5 -16 5 -3 10 1 10 9 0 18 -6 21 -15 7z"/>
<path d="M8071 5296 c-7 -9 -11 -27 -9 -41 3 -13 2 -26 -2 -27 -4 -2 -11 -14
-15 -28 -8 -25 -8 -25 14 -6 19 18 71 97 71 110 0 3 -4 6 -10 6 -5 0 -10 -8
-10 -17 0 -15 -1 -15 -13 1 -12 16 -14 16 -26 2z m16 -48 c-3 -8 -6 -5 -6 6
-1 11 2 17 5 13 3 -3 4 -12 1 -19z"/>
<path d="M1581 5264 c0 -11 3 -14 6 -6 3 7 2 16 -1 19 -3 4 -6 -2 -5 -13z"/>
<path d="M7280 5263 c0 -15 41 -75 47 -69 3 3 -1 14 -10 24 -10 10 -17 24 -17
30 0 6 -4 14 -10 17 -5 3 -10 3 -10 -2z"/>
<path d="M6760 5225 c5 -12 6 -26 2 -31 -4 -4 -1 -4 6 0 7 4 10 12 7 17 -4 5
-2 9 3 9 17 0 8 26 -9 27 -15 1 -16 -2 -9 -22z"/>
<path d="M6820 5243 c0 -4 5 -15 10 -23 8 -13 10 -13 10 2 0 9 -4 20 -10 23
-5 3 -10 3 -10 -2z"/>
<path d="M8270 5225 c-8 -9 -8 -15 -2 -15 12 0 26 19 19 26 -2 2 -10 -2 -17
-11z"/>
<path d="M8354 5229 c-11 -18 11 -32 25 -16 9 12 8 16 -3 20 -9 4 -18 1 -22
-4z"/>
<path d="M1555 5147 c-10 -47 -15 -91 -13 -98 3 -8 13 28 22 79 22 118 15 132
-9 19z"/>
<path d="M6796 5196 c3 -9 11 -16 16 -16 13 0 5 23 -10 28 -7 2 -10 -2 -6 -12z"/>
<path d="M7280 5190 c-8 -5 -11 -13 -6 -17 5 -4 11 -2 13 5 4 10 8 10 21 0 15
-12 16 -11 3 5 -7 9 -14 17 -15 17 0 0 -8 -4 -16 -10z"/>
<path d="M8324 5160 c-1 -38 2 -38 21 0 14 28 14 30 -2 30 -13 0 -18 -8 -19
-30z"/>
<path d="M6900 5162 c0 -17 21 -25 31 -13 5 6 6 9 3 6 -4 -3 -13 0 -21 6 -9 8
-13 8 -13 1z"/>
<path d="M7850 5145 c-8 -9 -8 -15 -2 -15 12 0 26 19 19 26 -2 2 -10 -2 -17
-11z"/>
<path d="M6792 5130 c0 -14 2 -19 5 -12 2 6 2 18 0 25 -3 6 -5 1 -5 -13z"/>
<path d="M6740 5115 c0 -14 4 -25 9 -25 12 0 19 21 13 38 -8 21 -22 13 -22
-13z"/>
<path d="M7955 5120 c-21 -23 -8 -27 20 -7 11 8 14 16 8 20 -6 4 -18 -2 -28
-13z"/>
<path d="M6880 5120 c0 -5 5 -10 10 -10 6 0 10 5 10 10 0 6 -4 10 -10 10 -5 0
-10 -4 -10 -10z"/>
<path d="M7775 5111 c3 -5 -5 -17 -17 -25 l-22 -16 21 0 c28 0 50 35 27 44 -8
3 -12 2 -9 -3z"/>
<path d="M7620 5081 c-7 -11 -17 -18 -22 -15 -4 3 -8 1 -8 -5 0 -5 8 -11 18
-13 21 -4 57 26 47 41 -9 16 -19 14 -35 -8z"/>
<path d="M8246 5084 c-8 -22 -4 -25 11 -9 7 8 9 16 4 19 -5 3 -12 -1 -15 -10z"/>
<path d="M6745 5070 c-3 -5 -1 -10 4 -10 6 0 11 5 11 10 0 6 -2 10 -4 10 -3 0
-8 -4 -11 -10z"/>
<path d="M6950 5059 c0 -5 5 -7 10 -4 6 3 10 8 10 11 0 2 -4 4 -10 4 -5 0 -10
-5 -10 -11z"/>
<path d="M8196 5049 c-17 -21 -16 -49 3 -49 5 0 13 5 17 12 4 7 3 8 -4 4 -16
-9 -15 17 0 32 6 6 9 14 7 17 -3 2 -13 -5 -23 -16z"/>
<path d="M7750 5049 c0 -5 5 -7 10 -4 6 3 10 8 10 11 0 2 -4 4 -10 4 -5 0 -10
-5 -10 -11z"/>
<path d="M1570 4998 c1 -16 28 -53 35 -47 6 7 -18 59 -27 59 -5 0 -8 -6 -8
-12z"/>
<path d="M7036 4975 c-3 -8 -1 -15 4 -15 6 0 10 7 10 15 0 8 -2 15 -4 15 -2 0
-6 -7 -10 -15z"/>
<path d="M7868 4970 c-21 -16 -24 -25 -19 -50 6 -30 26 -39 26 -12 0 8 11 22
24 33 13 11 21 25 17 34 -7 20 -18 19 -48 -5z"/>
<path d="M8166 4976 c3 -9 11 -16 16 -16 13 0 5 23 -10 28 -7 2 -10 -2 -6 -12z"/>
<path d="M7589 4940 c-19 -16 -29 -29 -24 -29 14 0 70 47 64 53 -3 3 -21 -8
-40 -24z"/>
<path d="M7724 4946 c-10 -8 -16 -17 -13 -20 3 -3 14 3 24 14 21 23 17 26 -11
6z"/>
<path d="M7639 4923 c-13 -17 -13 -17 6 -3 11 8 22 16 24 17 2 2 0 3 -6 3 -6
0 -17 -8 -24 -17z"/>
<path d="M8112 4928 c-14 -14 -16 -38 -4 -38 12 0 32 23 32 37 0 16 -12 17
-28 1z"/>
<path d="M7675 4900 c-10 -11 -16 -22 -13 -25 3 -3 13 4 23 15 10 11 16 22 13
25 -3 3 -13 -4 -23 -15z"/>
<path d="M1607 4897 c-6 -17 11 -37 30 -37 18 0 16 14 -6 34 -15 14 -19 14
-24 3z"/>
<path d="M8060 4850 c0 -5 -7 -7 -15 -4 -16 7 -65 -38 -65 -59 0 -6 7 -1 16
11 8 12 20 19 26 16 7 -4 8 -2 4 4 -5 8 0 12 12 12 11 0 25 7 32 15 9 10 9 15
1 15 -6 0 -11 -4 -11 -10z"/>
<path d="M6965 4840 c-3 -5 -1 -10 4 -10 6 0 11 5 11 10 0 6 -2 10 -4 10 -3 0
-8 -4 -11 -10z"/>
<path d="M8097 4805 c-28 -26 -35 -45 -17 -45 6 0 10 4 10 10 0 5 6 7 14 4 8
-3 17 -1 21 5 3 6 0 11 -7 11 -10 0 -10 2 1 9 7 5 12 14 10 20 -2 6 -16 1 -32
-14z"/>
<path d="M6792 4771 c-12 -10 -22 -25 -22 -32 1 -10 4 -9 14 3 7 10 16 16 19
13 4 -3 5 -2 2 2 -3 3 0 12 6 20 16 19 6 16 -19 -6z"/>
<path d="M7205 4750 c-3 -5 -2 -10 4 -10 5 0 13 5 16 10 3 6 2 10 -4 10 -5 0
-13 -4 -16 -10z"/>
<path d="M7140 4725 c-7 -9 -8 -15 -2 -15 5 0 12 7 16 15 3 8 4 15 2 15 -2 0
-9 -7 -16 -15z"/>
<path d="M5477 4618 c4 -19 3 -20 -6 -8 -9 12 -10 8 -5 -15 12 -52 20 -56 19
-11 0 25 -3 47 -7 51 -4 4 -4 -4 -1 -17z"/>
<path d="M5544 4614 c3 -15 8 -29 12 -33 4 -3 4 2 1 12 -4 11 -3 16 3 12 6 -3
7 -17 4 -30 -7 -29 12 -43 21 -14 8 24 -10 65 -32 73 -10 4 -12 -1 -9 -20z"/>
<path d="M5517 4611 c-3 -11 -1 -21 5 -21 5 0 8 -10 6 -22 -2 -13 -9 -22 -16
-20 -16 3 -15 -6 1 -23 21 -21 36 31 21 74 -10 30 -12 31 -17 12z"/>
<path d="M5456 4555 c5 -31 34 -70 34 -47 0 7 -4 12 -9 12 -4 0 -13 15 -19 33
-11 32 -12 32 -6 2z"/>
<path d="M5426 4493 c9 -38 14 -42 14 -10 0 14 -5 29 -10 32 -7 4 -8 -3 -4
-22z"/>
<path d="M5494 4494 c-5 -19 -9 -22 -15 -12 -7 10 -9 10 -9 -2 1 -8 7 -24 15
-34 8 -11 15 -14 15 -7 0 7 5 9 13 5 9 -6 9 -4 -1 8 -8 10 -10 26 -6 42 3 14
4 26 0 26 -3 0 -9 -12 -12 -26z"/>
<path d="M5561 4414 c0 -11 3 -14 6 -6 3 7 2 16 -1 19 -3 4 -6 -2 -5 -13z"/>
<path d="M5507 4400 c3 -11 7 -20 9 -20 2 0 4 9 4 20 0 11 -4 20 -9 20 -5 0
-7 -9 -4 -20z"/>
<path d="M5500 4356 c0 -8 4 -17 9 -20 5 -4 7 3 4 14 -6 23 -13 26 -13 6z"/>
<path d="M8137 4327 c-3 -9 -12 -15 -19 -13 -7 1 -10 1 -6 -1 4 -2 4 -12 1
-21 -5 -12 -1 -11 16 5 13 12 21 27 19 34 -3 9 -6 8 -11 -4z"/>
<path d="M5565 4289 c-4 -6 -5 -12 -2 -15 2 -3 7 2 10 11 7 17 1 20 -8 4z"/>
<path d="M8097 4187 c-16 -15 -23 -28 -19 -38 6 -14 12 -11 41 16 25 24 30 33
19 38 -8 3 -26 -5 -41 -16z"/>
<path d="M5612 4186 c7 -8 15 -12 17 -11 5 6 -10 25 -20 25 -5 0 -4 -6 3 -14z"/>
<path d="M5880 4136 c0 -2 8 -10 18 -17 15 -13 16 -12 3 4 -13 16 -21 21 -21
13z"/>
<path d="M5817 4099 c7 -7 15 -10 18 -7 3 3 -2 9 -12 12 -14 6 -15 5 -6 -5z"/>
<path d="M8190 4065 c-7 -8 -22 -15 -35 -15 -14 0 -26 -9 -33 -26 -7 -14 -17
-22 -22 -19 -6 3 -10 2 -10 -4 0 -5 10 -13 22 -16 22 -7 26 -3 79 68 21 28 21
38 -1 12z"/>
<path d="M6188 3493 c7 -3 16 -2 19 1 4 3 -2 6 -13 5 -11 0 -14 -3 -6 -6z"/>
<path d="M5940 3080 c0 -5 5 -10 11 -10 5 0 7 5 4 10 -3 6 -8 10 -11 10 -2 0
-4 -4 -4 -10z"/>
<path d="M6099 2974 c27 -35 27 -53 0 -23 -19 23 -20 23 -10 2 12 -23 29 -37
47 -38 6 0 23 -15 38 -32 37 -44 66 -45 35 -2 -36 51 -69 83 -69 68 0 -8 -8
-2 -17 13 -10 15 -23 30 -31 33 -8 3 -5 -6 7 -21z"/>
<path d="M6306 2889 c22 -31 40 -56 42 -55 6 6 -30 65 -54 87 -21 19 -18 12
12 -32z"/>
<path d="M6219 2892 c14 -26 50 -56 58 -48 4 4 -7 20 -24 36 -36 34 -48 38
-34 12z"/>
<path d="M6135 2890 c-3 -5 -1 -10 4 -10 6 0 11 5 11 10 0 6 -2 10 -4 10 -3 0
-8 -4 -11 -10z"/>
<path d="M6238 2823 c6 -2 10 -8 8 -12 -3 -3 3 -17 13 -30 17 -22 18 -22 16
-3 -1 24 -23 52 -39 51 -7 0 -6 -2 2 -6z"/>
<path d="M6275 2820 c3 -5 11 -10 16 -10 6 0 7 5 4 10 -3 6 -11 10 -16 10 -6
0 -7 -4 -4 -10z"/>
<path d="M8045 1739 c-4 -6 -5 -12 -2 -15 2 -3 7 2 10 11 7 17 1 20 -8 4z"/>
<path d="M7971 1727 c-1 -10 6 -20 14 -23 17 -7 50 22 35 31 -5 3 -10 1 -10
-4 0 -15 -27 -14 -33 2 -3 7 -6 5 -6 -6z"/>
<path d="M7935 1720 c-3 -5 1 -10 10 -10 9 0 13 5 10 10 -3 6 -8 10 -10 10 -2
0 -7 -4 -10 -10z"/>
<path d="M8020 1669 c0 -5 5 -7 10 -4 6 3 10 8 10 11 0 2 -4 4 -10 4 -5 0 -10
-5 -10 -11z"/>
<path d="M7410 1600 c0 -5 5 -10 11 -10 5 0 7 5 4 10 -3 6 -8 10 -11 10 -2 0
-4 -4 -4 -10z"/>
<path d="M7385 1580 c-3 -5 -1 -10 4 -10 6 0 11 5 11 10 0 6 -2 10 -4 10 -3 0
-8 -4 -11 -10z"/>
<path d="M7800 1546 c0 -2 7 -6 15 -10 8 -3 15 -1 15 4 0 6 -7 10 -15 10 -8 0
-15 -2 -15 -4z"/>
<path d="M7238 1513 c6 -2 18 -2 25 0 6 3 1 5 -13 5 -14 0 -19 -2 -12 -5z"/>
<path d="M7505 1490 c-16 -7 -17 -9 -3 -9 9 -1 20 4 23 9 7 11 7 11 -20 0z"/>
<path d="M7048 1473 c7 -3 16 -2 19 1 4 3 -2 6 -13 5 -11 0 -14 -3 -6 -6z"/>
<path d="M7408 1468 c5 -5 16 -8 23 -6 8 3 3 7 -10 11 -17 4 -21 3 -13 -5z"/>
<path d="M7535 1470 c-3 -5 1 -10 10 -10 9 0 13 5 10 10 -3 6 -8 10 -10 10 -2
0 -7 -4 -10 -10z"/>
<path d="M7708 1453 c7 -3 16 -2 19 1 4 3 -2 6 -13 5 -11 0 -14 -3 -6 -6z"/>
<path d="M7640 1438 c0 -24 36 -32 62 -13 23 15 22 15 -11 9 -23 -5 -36 -3
-42 7 -7 11 -9 11 -9 -3z"/>
<path d="M7558 1433 c7 -3 16 -2 19 1 4 3 -2 6 -13 5 -11 0 -14 -3 -6 -6z"/>
<path d="M6921 1373 c-1 -12 -6 -25 -13 -29 -6 -4 -8 -3 -5 3 3 5 -3 9 -13 8
-24 -2 -39 -15 -17 -15 9 0 19 -5 23 -11 4 -8 -1 -9 -17 -4 -21 7 -22 6 -11
-8 11 -13 10 -15 -8 -10 -15 4 -18 9 -10 18 13 16 4 24 -21 18 -25 -7 -24 -25
2 -41 16 -10 19 -19 14 -39 l-6 -25 38 22 c51 31 64 44 35 37 -12 -3 -20 -1
-16 4 3 5 18 9 35 9 29 0 38 13 17 26 -7 4 -8 3 -4 -4 4 -7 2 -12 -3 -12 -16
0 -13 20 4 26 19 8 20 24 1 24 -8 0 -17 6 -19 13 -3 6 -6 2 -6 -10z m-41 -93
c0 -5 -2 -10 -4 -10 -3 0 -8 5 -11 10 -3 6 -1 10 4 10 6 0 11 -4 11 -10z"/>
<path d="M6681 1356 c-8 -10 -9 -16 -1 -21 5 -3 10 -5 11 -3 4 18 7 38 4 38
-1 0 -8 -6 -14 -14z"/>
<path d="M6761 1354 c0 -11 3 -14 6 -6 3 7 2 16 -1 19 -3 4 -6 -2 -5 -13z"/>
<path d="M7494 1361 c4 -5 1 -11 -6 -13 -9 -3 -9 -6 0 -12 7 -4 12 -3 12 2 0
6 10 8 23 5 21 -4 22 -4 3 11 -22 17 -41 21 -32 7z"/>
<path d="M3960 1356 c0 -2 9 -6 20 -9 11 -3 20 -1 20 4 0 5 -9 9 -20 9 -11 0
-20 -2 -20 -4z"/>
<path d="M6182 1338 c-4 -18 -29 -31 -43 -22 -5 3 -9 -2 -9 -10 0 -9 -6 -16
-14 -16 -7 0 -19 -7 -26 -15 -9 -10 -9 -15 -1 -15 6 0 11 5 11 11 0 6 6 9 13
6 11 -4 131 54 151 73 5 5 -10 8 -34 7 -31 -1 -44 -7 -48 -19z"/>
<path d="M7045 1351 c-36 -7 -44 -35 -15 -51 24 -13 75 -5 105 17 20 13 20 14
-2 19 -13 4 -23 10 -23 15 0 10 -18 10 -65 0z m-5 -31 c0 -5 -2 -10 -4 -10 -3
0 -8 5 -11 10 -3 6 -1 10 4 10 6 0 11 -4 11 -10z"/>
<path d="M6719 1345 c-3 -6 -4 -20 -3 -33 1 -19 -2 -21 -20 -16 -17 5 -19 4
-9 -7 15 -15 57 -23 48 -9 -3 5 0 10 8 10 7 0 20 -11 27 -25 12 -22 11 -27 -6
-39 -10 -8 -20 -10 -22 -5 -6 16 -52 10 -52 -6 0 -8 7 -15 15 -15 9 0 27 -8
41 -17 20 -13 27 -14 33 -4 5 7 11 12 15 12 3 -1 17 6 31 15 27 18 25 37 -3
28 -10 -4 -13 -3 -6 3 6 4 14 16 17 27 6 14 4 17 -9 12 -8 -3 -18 -6 -20 -6
-3 0 -2 -4 1 -10 3 -5 0 -7 -9 -4 -18 7 -30 35 -13 33 29 -4 41 1 30 12 -8 8
-17 8 -31 0 -20 -11 -44 6 -54 39 -2 7 -7 10 -9 5z m8 -131 c-3 -3 -12 -4 -19
-1 -8 3 -5 6 6 6 11 1 17 -2 13 -5z"/>
<path d="M3988 1318 c5 -5 16 -8 23 -6 8 3 3 7 -10 11 -17 4 -21 3 -13 -5z"/>
<path d="M6245 1294 c2 -11 4 -21 4 -23 1 -2 7 2 14 8 8 6 17 8 20 4 4 -3 7
-1 7 6 0 7 -6 11 -14 8 -7 -3 -18 -1 -24 5 -7 7 -10 5 -7 -8z"/>
<path d="M6570 1295 c-8 -10 -7 -14 2 -18 7 -3 2 -6 -12 -6 -23 -1 -63 -41
-40 -41 5 0 10 5 10 10 0 6 5 10 11 10 18 0 -2 -22 -35 -35 l-31 -14 41 3 c22
1 45 5 50 8 5 4 26 9 47 13 20 4 40 11 42 16 3 4 12 6 20 2 10 -3 15 1 15 12
0 16 -2 16 -24 1 -14 -9 -32 -13 -41 -9 -12 4 -13 8 -4 13 6 5 9 15 6 23 -7
20 -44 28 -57 12z m18 -44 c-7 -11 -16 -17 -21 -14 -4 3 0 11 10 19 24 18 25
17 11 -5z"/>
<path d="M4307 1270 c3 -11 9 -20 15 -20 5 0 4 9 -2 20 -6 11 -12 20 -14 20
-2 0 -2 -9 1 -20z"/>
<path d="M6370 1264 c0 -8 5 -12 10 -9 6 3 10 10 10 16 0 5 -4 9 -10 9 -5 0
-10 -7 -10 -16z"/>
<path d="M2590 1255 c-7 -9 -8 -15 -2 -15 5 0 12 7 16 15 3 8 4 15 2 15 -2 0
-9 -7 -16 -15z"/>
<path d="M6200 1266 c0 -2 7 -7 16 -10 8 -3 12 -2 9 4 -6 10 -25 14 -25 6z"/>
<path d="M2457 1246 c-17 -13 -17 -14 0 -20 10 -4 14 -4 10 0 -4 4 -2 13 4 21
14 17 9 16 -14 -1z"/>
<path d="M2621 1243 c-1 -17 16 -25 25 -12 4 7 3 9 -4 5 -5 -3 -13 0 -15 6 -4
9 -6 10 -6 1z"/>
<path d="M6425 1234 c9 -9 18 -14 21 -11 9 9 -6 27 -22 27 -13 0 -13 -2 1 -16z"/>
<path d="M2480 1236 c0 -2 7 -7 16 -10 8 -3 12 -2 9 4 -6 10 -25 14 -25 6z"/>
<path d="M4000 1228 c0 -9 -5 -18 -11 -20 -6 -2 9 -4 32 -5 38 -1 41 0 19 8
-13 6 -28 15 -32 22 -5 8 -8 7 -8 -5z"/>
<path d="M6395 1220 c6 -10 4 -12 -7 -7 -11 4 -17 -2 -21 -19 -5 -26 7 -33 17
-9 3 8 13 15 22 15 18 0 14 22 -6 28 -8 3 -10 0 -5 -8z"/>
<path d="M7310 1215 c7 -8 22 -15 34 -15 18 0 17 2 -8 15 -36 19 -42 19 -26 0z"/>
<path d="M2233 1213 c9 -2 23 -2 30 0 6 3 -1 5 -18 5 -16 0 -22 -2 -12 -5z"/>
<path d="M6090 1200 c-9 -6 -10 -10 -3 -10 6 0 15 5 18 10 8 12 4 12 -15 0z"/>
<path d="M7380 1200 c0 -5 5 -10 10 -10 6 0 10 5 10 10 0 6 -4 10 -10 10 -5 0
-10 -4 -10 -10z"/>
<path d="M6426 1175 l-40 -24 40 -3 c23 -2 38 -8 37 -15 -4 -17 34 -26 54 -13
16 10 15 11 -5 6 -22 -4 -23 -4 -7 13 13 16 14 19 2 24 -8 3 -19 1 -23 -3 -5
-5 -19 -7 -31 -4 l-22 6 22 19 c29 24 21 22 -27 -6z"/>
<path d="M6846 1191 c-3 -5 1 -11 9 -15 8 -3 15 -17 15 -32 0 -27 0 -27 21 -8
18 16 19 19 5 22 -12 3 -15 10 -11 23 5 14 2 19 -14 19 -11 0 -22 -4 -25 -9z"/>
<path d="M2990 1180 c0 -5 21 -10 48 -10 34 0 43 3 32 10 -20 13 -80 13 -80 0z"/>
<path d="M6648 1183 c-29 -7 -22 -36 7 -31 30 6 30 5 8 -18 -17 -16 -16 -17
10 -12 16 3 27 1 27 -6 0 -11 20 14 20 25 0 9 -41 22 -59 19 -13 -1 -13 1 -2
14 8 9 12 15 10 15 -2 -1 -12 -3 -21 -6z"/>
<path d="M7140 1182 c0 -5 -9 -8 -20 -5 -14 4 -22 -1 -29 -18 -5 -13 -10 -18
-10 -11 -1 7 -6 10 -11 7 -6 -4 -8 -11 -5 -16 4 -5 1 -9 -6 -9 -8 0 -6 -7 5
-19 9 -10 14 -25 11 -33 -5 -12 2 -17 26 -20 26 -4 38 0 56 20 13 14 23 30 23
36 0 6 -5 4 -10 -4 -8 -13 -10 -13 -10 2 0 9 -6 19 -12 22 -10 3 -8 9 5 19 15
13 15 16 2 27 -9 7 -15 8 -15 2z"/>
<path d="M4670 1155 c0 -8 2 -15 4 -15 2 0 6 7 10 15 3 8 1 15 -4 15 -6 0 -10
-7 -10 -15z"/>
<path d="M5890 1166 c0 -2 11 -6 25 -8 13 -3 22 -1 19 3 -5 9 -44 13 -44 5z"/>
<path d="M6798 1163 c7 -3 16 -2 19 1 4 3 -2 6 -13 5 -11 0 -14 -3 -6 -6z"/>
<path d="M4635 1150 c-3 -5 -2 -10 4 -10 5 0 13 5 16 10 3 6 2 10 -4 10 -5 0
-13 -4 -16 -10z"/>
<path d="M4756 1144 c-8 -21 -8 -26 3 -20 5 3 12 -1 15 -9 5 -13 2 -13 -25 1
-35 18 -47 14 -25 -9 12 -12 13 -17 3 -21 -6 -3 -1 -5 13 -5 14 1 27 0 30 -1
18 -8 79 -7 75 1 -4 5 -16 10 -28 10 -15 1 -17 3 -6 6 14 3 12 9 -10 33 -29
34 -36 36 -45 14z"/>
<path d="M5250 1150 c0 -6 7 -10 15 -10 8 0 15 2 15 4 0 2 -7 6 -15 10 -8 3
-15 1 -15 -4z"/>
<path d="M6752 1135 c-11 -12 -10 -15 2 -15 8 0 18 5 21 10 4 6 11 8 16 5 5
-4 9 -1 9 4 0 16 -33 13 -48 -4z"/>
<path d="M7355 1140 c3 -5 8 -10 11 -10 2 0 4 5 4 10 0 6 -5 10 -11 10 -5 0
-7 -4 -4 -10z"/>
<path d="M2838 1133 c12 -2 30 -2 40 0 9 3 -1 5 -23 4 -22 0 -30 -2 -17 -4z"/>
<path d="M6600 1125 c0 -9 6 -12 15 -9 8 4 15 10 15 15 0 5 -7 9 -15 9 -8 0
-15 -7 -15 -15z"/>
<path d="M6816 1124 c-10 -26 -7 -54 6 -54 6 0 9 -3 6 -6 -3 -3 -15 0 -27 7
-30 19 -36 4 -10 -22 14 -14 24 -18 27 -11 2 7 15 9 33 5 19 -3 29 -1 29 6 0
8 -8 10 -21 6 -16 -5 -20 -3 -16 6 2 8 9 13 14 12 11 -2 11 37 0 55 -11 17
-34 15 -41 -4z"/>
<path d="M6901 1124 c0 -5 4 -18 8 -28 6 -17 8 -17 14 -3 3 8 -1 21 -9 27 -8
7 -14 9 -13 4z"/>
<path d="M6570 1110 c-9 -6 -10 -10 -3 -10 6 0 15 5 18 10 8 12 4 12 -15 0z"/>
<path d="M6881 1094 c0 -11 3 -14 6 -6 3 7 2 16 -1 19 -3 4 -6 -2 -5 -13z"/>
<path d="M5040 1079 c0 -5 5 -7 10 -4 6 3 10 8 10 11 0 2 -4 4 -10 4 -5 0 -10
-5 -10 -11z"/>
<path d="M3493 1063 c9 -2 23 -2 30 0 6 3 -1 5 -18 5 -16 0 -22 -2 -12 -5z"/>
<path d="M6350 1060 c0 -5 5 -10 10 -10 6 0 10 5 10 10 0 6 -4 10 -10 10 -5 0
-10 -4 -10 -10z"/>
<path d="M3448 1053 c7 -3 16 -2 19 1 4 3 -2 6 -13 5 -11 0 -14 -3 -6 -6z"/>
<path d="M6495 1040 c-16 -18 -19 -18 -30 -3 -13 17 -40 9 -29 -9 4 -6 0 -14
-7 -19 -10 -6 -5 -9 16 -11 71 -4 97 -3 108 4 8 5 5 8 -8 9 l-20 0 20 9 20 8
-20 8 c-11 4 -23 11 -26 16 -3 5 -14 -1 -24 -12z"/>
<path d="M6098 1043 c7 -3 16 -2 19 1 4 3 -2 6 -13 5 -11 0 -14 -3 -6 -6z"/>
<path d="M6665 1030 c-3 -5 -1 -10 4 -10 6 0 11 5 11 10 0 6 -2 10 -4 10 -3 0
-8 -4 -11 -10z"/>
<path d="M6720 1010 c-13 -8 -13 -10 2 -10 9 0 20 5 23 10 8 13 -5 13 -25 0z"/>
<path d="M6655 1000 c3 -5 12 -7 20 -3 21 7 19 13 -6 13 -11 0 -18 -4 -14 -10z"/>
<path d="M7740 999 c0 -5 5 -7 10 -4 6 3 10 8 10 11 0 2 -4 4 -10 4 -5 0 -10
-5 -10 -11z"/>
<path d="M6465 960 c-19 -8 -19 -9 3 -9 12 -1 22 4 22 9 0 6 -1 10 -2 9 -2 0
-12 -4 -23 -9z"/>
<path d="M6518 953 c7 -3 16 -2 19 1 4 3 -2 6 -13 5 -11 0 -14 -3 -6 -6z"/>
<path d="M6325 910 c-8 -13 -1 -24 14 -19 6 3 7 10 2 18 -6 10 -10 10 -16 1z"/>
<path d="M7512 878 c-8 -8 -8 -17 -1 -30 12 -22 29 -15 29 12 0 24 -13 33 -28
18z"/>
<path d="M6687 795 c-23 -17 -4 -31 47 -34 33 -1 38 1 32 16 -5 16 -5 16 8 -1
10 -11 21 -16 32 -12 16 6 16 8 0 25 -21 23 -91 26 -119 6z"/>
<path d="M3613 773 c-17 -3 -23 -11 -23 -31 l0 -27 18 23 c14 17 26 23 48 20
25 -3 29 -7 29 -33 0 -23 -5 -31 -22 -33 -27 -4 -31 -22 -5 -22 10 0 23 -5 30
-12 17 -17 15 -63 -2 -77 -24 -20 -69 -9 -83 19 l-13 25 0 -31 c0 -29 4 -32
36 -38 67 -13 134 15 134 56 0 28 -18 58 -35 58 -21 0 -19 13 5 28 23 14 26
44 6 61 -15 13 -90 22 -123 14z"/>
<path d="M3833 773 c-17 -3 -23 -11 -23 -31 l0 -27 18 23 c14 17 26 23 48 20
25 -3 29 -7 29 -33 0 -23 -5 -31 -22 -33 -27 -4 -31 -22 -5 -22 10 0 23 -5 30
-12 17 -17 15 -63 -2 -77 -24 -20 -69 -9 -83 19 l-13 25 0 -31 c0 -29 4 -32
36 -38 67 -13 134 15 134 56 0 28 -18 58 -35 58 -21 0 -19 13 5 28 23 14 26
44 6 61 -15 13 -90 22 -123 14z"/>
<path d="M4074 770 c-58 -24 -75 -134 -30 -187 34 -39 98 -39 132 0 33 39 34
124 2 161 -25 29 -72 40 -104 26z m66 -36 c13 -33 13 -105 0 -139 -7 -20 -16
-26 -33 -23 -20 3 -22 9 -25 82 -2 44 -1 85 2 93 9 23 46 15 56 -13z"/>
<path d="M4390 768 c-49 -26 -52 -103 -4 -134 20 -14 32 -15 60 -6 33 10 35 9
28 -11 -3 -12 -11 -28 -16 -34 -14 -18 -67 -16 -74 2 -9 21 -24 19 -24 -4 0
-14 9 -21 38 -26 44 -7 79 4 107 35 29 32 28 131 -1 160 -26 26 -81 35 -114
18z m75 -68 c0 -52 -1 -55 -25 -55 -22 0 -25 5 -28 44 -4 57 3 73 30 69 21 -3
23 -9 23 -58z"/>
<path d="M4610 768 c-49 -26 -52 -103 -4 -134 20 -14 32 -15 60 -6 33 10 35 9
28 -11 -3 -12 -11 -28 -16 -34 -14 -18 -67 -16 -74 2 -9 21 -24 19 -24 -4 0
-14 9 -21 38 -26 44 -7 79 4 107 35 29 32 28 131 -1 160 -26 26 -81 35 -114
18z m75 -68 c0 -52 -1 -55 -25 -55 -22 0 -25 5 -28 44 -4 57 3 73 30 69 21 -3
23 -9 23 -58z"/>
<path d="M4823 773 c-17 -3 -23 -12 -23 -31 l0 -26 16 22 c17 24 53 29 72 10
7 -7 12 -26 12 -43 0 -32 -27 -64 -82 -100 -16 -9 -28 -26 -28 -36 0 -17 8
-19 85 -19 l85 0 -1 38 c-1 20 -3 29 -6 20 -4 -15 -16 -18 -66 -18 l-62 0 55
36 c64 43 80 60 80 89 0 44 -69 73 -137 58z"/>
<path d="M5167 706 c-26 -40 -47 -79 -47 -85 0 -6 18 -11 45 -11 38 0 45 -3
45 -20 0 -14 -7 -20 -21 -20 -11 0 -17 -4 -14 -10 3 -5 33 -10 66 -10 33 0 59
4 59 10 0 6 -7 10 -15 10 -8 0 -15 9 -15 20 0 13 7 20 20 20 11 0 20 5 20 10
0 6 -9 10 -20 10 -18 0 -20 7 -20 75 l0 75 -28 0 c-24 0 -35 -11 -75 -74z m40
-73 c-3 -2 -19 -3 -35 -1 l-31 3 32 51 32 51 3 -49 c2 -28 1 -52 -1 -55z"/>
<path d="M5351 743 c1 -21 3 -30 6 -20 4 14 16 17 64 17 32 0 59 -2 59 -5 0
-3 -20 -46 -45 -95 -28 -55 -40 -90 -33 -90 16 0 108 177 108 208 0 21 -4 22
-80 22 l-80 0 1 -37z"/>
<path d="M5580 727 l0 -54 42 1 c37 1 43 -2 52 -26 24 -67 -55 -112 -88 -50
l-15 27 -1 -32 c0 -29 3 -32 40 -38 56 -9 106 9 118 44 21 59 -40 113 -104 93
-33 -10 -34 -9 -34 19 l0 29 65 0 c58 0 65 2 65 20 0 18 -7 20 -70 20 l-70 0
0 -53z"/>
<path d="M5827 706 c-26 -40 -47 -79 -47 -85 0 -6 18 -11 45 -11 38 0 45 -3
45 -20 0 -11 -7 -20 -15 -20 -8 0 -15 -4 -15 -10 0 -6 27 -10 60 -10 33 0 60
4 60 10 0 6 -7 10 -15 10 -8 0 -15 9 -15 20 0 13 7 20 20 20 11 0 20 5 20 10
0 6 -9 10 -20 10 -18 0 -20 7 -20 75 l0 75 -28 0 c-24 0 -35 -11 -75 -74z m40
-73 c-3 -2 -19 -3 -35 -1 l-31 3 32 51 32 51 3 -49 c2 -28 1 -52 -1 -55z"/>
<path d="M4263 603 c-19 -7 -16 -40 4 -47 21 -8 36 6 31 30 -3 19 -16 25 -35
17z"/>
<path d="M5033 603 c-19 -7 -16 -40 4 -47 21 -8 36 6 31 30 -3 19 -16 25 -35
17z"/>
</g>
</svg>
